<?xml version="1.0" standalone="no"?>
<!DOCTYPE svg PUBLIC "-//W3C//DTD SVG 1.1//EN" "http://www.w3.org/Graphics/SVG/1.1/DTD/svg11.dtd" >
<svg xmlns="http://www.w3.org/2000/svg" xmlns:xlink="http://www.w3.org/1999/xlink" version="1.1">
<metadata>
Created by FontForge 20201107 at Tue Jan 23 02:22:40 2024
 By 
(c) 2022 Aleksey Ryabov
</metadata>
<defs>
<font id="ModesticSans-Bold" horiz-adv-x="532" >
  <font-face 
    font-family="Modestic Sans"
    font-weight="700"
    font-stretch="normal"
    units-per-em="2048"
    panose-1="0 0 0 0 0 0 0 0 0 0"
    ascent="1536"
    descent="-512"
    x-height="1024"
    cap-height="1434"
    bbox="-193 -578 2503 1939"
    underline-thickness="102"
    underline-position="-255"
    unicode-range="U+000D-FB04"
  />
<missing-glyph horiz-adv-x="512" 
 />
    <glyph glyph-name="f_f" unicode="ff" horiz-adv-x="1476" 
d="M29 1024h188v111q0 183 95 293t257 116q83 3 171.5 -21.5t156.5 -68.5l-90 -190q-46 36 -100 53.5t-101 11.5q-66 -8 -104.5 -61t-38.5 -144v-100h420v111q-1 182 93.5 292.5t256.5 116.5q83 3 173 -21.5t157 -68.5l-93 -190q-100 77 -200 65q-66 -8 -105 -61.5
t-39 -143.5v-100h295v-207h-295v-817h-243v817h-420v-817h-246v817h-188v207z" />
    <glyph glyph-name="fi" unicode="fi" horiz-adv-x="1071" 
d="M31 1024h147v111q-1 182 93.5 292.5t256.5 116.5q83 3 173 -21.5t157 -68.5l-92 -190q-100 77 -201 65q-66 -8 -104.5 -61t-38.5 -144v-100h536v-1024h-245v817h-291v-817h-244v817h-147v207z" />
    <glyph glyph-name="fl" unicode="fl" horiz-adv-x="1148" 
d="M31 1024h147v111q-2 187 103.5 295.5t310.5 117.5q203 8 424 -82v-1466h-246v1311q-106 43 -197 24q-72 -12 -111.5 -66t-39.5 -145v-100h295v-207h-295v-817h-244v817h-147v207z" />
    <glyph glyph-name="f_f_i" unicode="ffi" horiz-adv-x="1775" 
d="M463 1024h418v111q0 181 97.5 295.5t274.5 113.5q79 0 162 -24.5t148 -65.5l-93 -190q-87 67 -176 67q-84 0 -126 -60t-42 -147v-100h537v-1024h-246v817h-291v-817h-245v817h-418v-817h-246v817h-188v207h188v111q0 183 95 293t257 116q83 3 171.5 -21.5t156.5 -68.5
l-90 -190q-46 36 -100 53.5t-101 11.5q-66 -8 -104.5 -61t-38.5 -144v-100z" />
    <glyph glyph-name="f_f_l" unicode="ffl" horiz-adv-x="1851" 
d="M463 1024h418v111q0 200 108 302t305 111q205 8 426 -82v-1466h-245v1272q-45 34 -99.5 49.5t-101.5 9.5q-69 -9 -108.5 -62.5t-39.5 -144.5v-100h295v-207h-295v-817h-245v817h-418v-817h-246v817h-188v207h188v111q0 183 95 293t257 116q83 3 171.5 -21.5t156.5 -68.5
l-90 -190q-46 36 -100 53.5t-101 11.5q-66 -8 -104.5 -61t-38.5 -144v-100z" />
    <glyph glyph-name=".notdef" horiz-adv-x="512" 
 />
    <glyph glyph-name="uni0000" horiz-adv-x="0" 
 />
    <glyph glyph-name="uni0000" horiz-adv-x="0" 
 />
    <glyph glyph-name="uni000D" unicode="&#xd;" horiz-adv-x="409" 
 />
    <glyph glyph-name="uni000F" horiz-adv-x="409" 
 />
    <glyph glyph-name="space" unicode=" " 
 />
    <glyph glyph-name="exclam" unicode="!" horiz-adv-x="485" 
d="M193 440l-78 994h258l-78 -994h-102zM94 127q0 68 41.5 110t108.5 42t107 -42t40 -110q0 -65 -40 -106t-107 -41t-108.5 41t-41.5 106z" />
    <glyph glyph-name="quotedbl" unicode="&#x22;" horiz-adv-x="698" 
d="M180 1024l-88 410h221l-88 -410h-45zM471 1024l-88 410h221l-88 -410h-45z" />
    <glyph glyph-name="numbersign" unicode="#" horiz-adv-x="1228" 
d="M375 0h-133l61 360h-215v129h238l67 408h-239v129h260l69 408h133l-69 -406h340l67 406h133l-67 -406h209v-131h-232l-67 -405h237v-132h-260l-59 -360h-133l61 360h-340zM457 492h340l67 405h-338z" />
    <glyph glyph-name="dollar" unicode="$" horiz-adv-x="1220" 
d="M528 -221v211q-143 22 -272 84t-209 151l100 217q67 -72 171 -129t210 -84v416l-215 121q-200 108 -200 315q1 159 117 263t298 110v186h156v-198q121 -22 241.5 -76.5t211.5 -130.5l-119 -201q-61 61 -149.5 106t-184.5 64v-358l199 -107q120 -65 182.5 -165t62.5 -218
q0 -166 -120 -267t-324 -107v-203h-156zM528 930v284q-125 -16 -145 -92q-11 -40 9.5 -84.5t74.5 -74.5zM684 559v-348q73 3 121.5 30t58.5 72q14 59 -32.5 125t-135.5 115z" />
    <glyph glyph-name="percent" unicode="%" horiz-adv-x="1351" 
d="M117 1102q0 160 74.5 256t197.5 96q125 0 200 -96t75 -256t-75 -256t-200 -96q-123 0 -197.5 96t-74.5 256zM223 0h-131l1053 1434h131zM242 1102q0 -109 40.5 -176.5t106.5 -67.5q67 0 108.5 67.5t41.5 176.5t-41 175t-109 66q-66 0 -106.5 -66t-40.5 -175zM709 332
q0 160 75 256t199 96q123 0 197.5 -96t74.5 -256q0 -158 -74.5 -255t-197.5 -97q-124 0 -199 96.5t-75 255.5zM834 332q0 -108 41.5 -175t107.5 -67t106.5 66.5t40.5 175.5q0 110 -40.5 176.5t-106.5 66.5t-107.5 -67.5t-41.5 -175.5z" />
    <glyph glyph-name="ampersand" unicode="&#x26;" horiz-adv-x="1341" 
d="M1026 606h188q-21 -207 -129 -358l201 -248h-260l-82 102q-166 -122 -391 -122q-131 0 -237.5 43t-169.5 122.5t-66 182.5q-2 60 19.5 118.5t53 102t80 87t87.5 71t88 57.5l-41 49q-63 76 -96 164.5t-29 171.5q8 131 108 218t254 87q156 0 259 -87.5t108 -215.5
q4 -112 -71 -227t-204 -199l265 -326q50 90 65 207zM582 866q84 54 131.5 125.5t46.5 141.5q-2 68 -47 111.5t-117 43.5q-71 0 -114 -44t-42 -114q3 -92 103 -217zM827 246l-309 381q-92 -58 -142.5 -136.5t-43.5 -154.5q8 -74 72.5 -120t173.5 -46q137 0 249 76z" />
    <glyph glyph-name="quotesingle" unicode="'" horiz-adv-x="405" 
d="M180 1024l-88 410h221l-88 -410h-45z" />
    <glyph glyph-name="parenleft" unicode="(" horiz-adv-x="671" 
d="M684 -389q-290 97 -466.5 361t-176.5 601t176.5 601.5t466.5 361.5q-212 -146 -341.5 -411t-129.5 -552t129.5 -551.5t341.5 -410.5z" />
    <glyph glyph-name="parenright" unicode=")" horiz-adv-x="671" 
d="M-12 -389q212 146 341.5 410.5t129.5 551.5t-129.5 552t-341.5 411q290 -97 466.5 -361.5t176.5 -601.5t-176.5 -601t-466.5 -361z" />
    <glyph glyph-name="asterisk" unicode="*" horiz-adv-x="878" 
d="M168 854l240 223l-314 66l72 164l252 -187l-66 312h180l-71 -310l252 185l71 -164l-317 -66l238 -221l-150 -102l-117 290l-121 -290z" />
    <glyph glyph-name="plus" unicode="+" horiz-adv-x="831" 
d="M487 1020v-272h252v-144h-252v-272h-143v272h-252v144h252v272h143z" />
    <glyph glyph-name="comma" unicode="," horiz-adv-x="448" 
d="M94 102q0 58 35 93.5t92 35.5q62 0 98.5 -41t36.5 -110q0 -79 -47.5 -176.5t-124.5 -171.5l-59 -37q120 146 123 230q3 55 -53 55q-43 0 -72 34.5t-29 87.5z" />
    <glyph glyph-name="hyphen" unicode="-" horiz-adv-x="618" 
d="M92 514v139h434v-139h-434z" />
    <glyph glyph-name="period" unicode="." horiz-adv-x="485" 
d="M92 127q0 67 42 109.5t110 42.5q66 0 106.5 -42t40.5 -110q0 -65 -40.5 -106t-106.5 -41q-67 0 -109.5 41t-42.5 106z" />
    <glyph glyph-name="slash" unicode="/" horiz-adv-x="948" 
d="M174 -328h-154l762 1864h152z" />
    <glyph glyph-name="zero" unicode="0" horiz-adv-x="1329" 
d="M92 717q0 331 158 534t416 203q169 0 299 -91.5t201 -259t71 -386.5t-71 -386.5t-201 -259t-299 -91.5q-258 0 -416 203t-158 534zM354 717q0 -228 86 -368t226 -140q139 0 224 139.5t85 368.5q0 242 -83.5 375t-225.5 133q-140 0 -226 -140t-86 -368z" />
    <glyph glyph-name="one" unicode="1" horiz-adv-x="823" 
d="M401 0v1051l-227 -228l-76 203l391 408h170v-1434h-258z" />
    <glyph glyph-name="two" unicode="2" horiz-adv-x="1099" 
d="M535 1454q197 0 317.5 -103.5t120.5 -273.5q0 -169 -123 -383t-342 -450h518v-244h-924l-2 152q268 248 433 481.5t169 374.5q3 94 -59.5 153.5t-165.5 59.5q-93 0 -181.5 -51t-154.5 -138l-88 207q92 101 215 158t267 57z" />
    <glyph glyph-name="three" unicode="3" horiz-adv-x="1085" 
d="M553 1454q200 0 321 -97t121 -259q0 -138 -90.5 -238t-238.5 -123q149 -22 238 -121.5t89 -246.5q0 -173 -123.5 -277t-326.5 -104q-136 0 -265 46.5t-206 123.5l84 211q62 -66 157 -107t189 -41q106 0 168.5 52t62.5 135q0 99 -88 161.5t-235 71.5v195q147 8 235 65.5
t88 147.5q0 77 -64 126.5t-167 49.5q-94 0 -188.5 -41.5t-157.5 -110.5l-82 211q77 77 208.5 123.5t270.5 46.5z" />
    <glyph glyph-name="four" unicode="4" horiz-adv-x="1073" 
d="M616 0l2 291h-571v180l610 963h217v-942h148v-201h-148v-291h-258zM281 492h335v540z" />
    <glyph glyph-name="five" unicode="5" horiz-adv-x="1177" 
d="M174 715l96 719h756v-222h-584l-39 -307q109 56 242 56q200 -1 321 -135.5t121 -350.5q0 -227 -135.5 -361t-373.5 -134q-153 0 -293.5 53t-218.5 141l79 207q72 -80 182 -129t218 -49q130 0 205 76t75 204q0 124 -69 197t-185 72q-136 -3 -245 -107z" />
    <glyph glyph-name="six" unicode="6" horiz-adv-x="1243" 
d="M709 1454q107 0 217.5 -32t187.5 -85l-80 -213q-71 48 -162 76.5t-176 28.5q-290 0 -336 -369q123 95 310 98q209 2 346 -132.5t137 -352.5q0 -221 -142.5 -357t-375.5 -136q-246 0 -394.5 188.5t-148.5 509.5q0 227 77 403.5t217.5 274.5t322.5 98zM354 606
q12 -210 83.5 -318t197.5 -108q119 0 189.5 72t70.5 205q0 137 -72 218.5t-190 80.5q-79 -1 -154 -41.5t-125 -108.5z" />
    <glyph glyph-name="seven" unicode="7" horiz-adv-x="991" 
d="M96 1434h842l2 -93q-31 -131 -87.5 -267.5t-112.5 -249t-110 -235t-91.5 -273.5t-46.5 -316h-259q1 136 30.5 266t82 249t106 221t122.5 232t112 232h-590v234z" />
    <glyph glyph-name="eight" unicode="8" horiz-adv-x="1171" 
d="M82 397q0 122 69.5 222.5t184.5 146.5q-85 41 -132.5 122.5t-47.5 188.5q0 169 118.5 273t311.5 104t311.5 -104t118.5 -273q0 -100 -48 -182.5t-132 -128.5q114 -50 184 -151t70 -218q0 -187 -139 -302t-365 -115q-227 0 -365.5 114.5t-138.5 302.5zM373 1077
q0 -101 58 -162t155 -61q96 0 154.5 61t58.5 162q0 97 -59 157t-154 60q-96 0 -154.5 -60t-58.5 -157zM330 397q0 -111 70.5 -179t185.5 -68t185.5 68t70.5 179q0 122 -70.5 196.5t-185.5 74.5t-185.5 -74.5t-70.5 -196.5z" />
    <glyph glyph-name="nine" unicode="9" horiz-adv-x="1245" 
d="M537 -20q-108 0 -221.5 32t-190.5 86l80 211q72 -47 161 -75.5t164 -28.5q133 0 223 94t124 266q-125 -87 -304 -90q-215 -1 -347 131.5t-132 349.5q0 224 142 361t374 137q247 0 395 -189t148 -513q0 -229 -75.5 -404t-216 -271.5t-324.5 -96.5zM893 829
q-8 203 -80.5 313.5t-202.5 110.5q-120 0 -190 -72t-70 -204q0 -136 72.5 -218.5t189.5 -80.5q81 1 156 42t125 109z" />
    <glyph glyph-name="colon" unicode=":" horiz-adv-x="485" 
d="M92 905q0 66 42.5 108t109.5 42q66 0 106.5 -42t40.5 -108t-40.5 -106.5t-106.5 -40.5q-68 0 -110 40.5t-42 106.5zM92 127q0 67 42 109.5t110 42.5q66 0 106.5 -42t40.5 -110q0 -65 -40.5 -106t-106.5 -41q-67 0 -109.5 41t-42.5 106z" />
    <glyph glyph-name="semicolon" unicode=";" horiz-adv-x="481" 
d="M82 905q0 66 42 108t109 42t107.5 -41.5t40.5 -108.5q0 -66 -40.5 -106.5t-107.5 -40.5q-68 0 -109.5 40.5t-41.5 106.5zM100 102q0 58 35 93.5t92 35.5q62 0 98.5 -41t36.5 -110q0 -78 -48 -175.5t-124 -172.5l-59 -37q120 146 123 230q3 55 -53 55q-44 0 -72.5 34
t-28.5 88z" />
    <glyph glyph-name="less" unicode="&#x3c;" horiz-adv-x="954" 
d="M862 227l-768 373v70l768 364v-141l-540 -258l540 -266v-142z" />
    <glyph glyph-name="equal" unicode="=" horiz-adv-x="905" 
d="M92 752v139h721v-139h-721zM92 432v139h721v-139h-721z" />
    <glyph glyph-name="greater" unicode="&#x3e;" horiz-adv-x="954" 
d="M862 600l-768 -373v142l541 266l-541 258v141l768 -364v-70z" />
    <glyph glyph-name="question" unicode="?" horiz-adv-x="954" 
d="M500 397h-166q-10 67 1.5 132t37.5 117.5t60 102.5t70.5 94.5t66.5 85.5t49.5 84.5t19.5 82.5q0 74 -60.5 121t-150.5 47q-87 0 -167.5 -45.5t-139.5 -122.5l-82 166q182 192 436 192q178 0 290 -87.5t112 -217.5q0 -54 -22.5 -108t-58.5 -100.5t-78.5 -94t-84 -97.5
t-74 -102t-49.5 -116.5t-10 -133.5zM264 127q0 67 42 109.5t110 42.5q66 0 106.5 -42t40.5 -110q0 -65 -40.5 -106t-106.5 -41q-67 0 -109.5 41t-42.5 106z" />
    <glyph glyph-name="at" unicode="@" horiz-adv-x="1914" 
d="M528 571q0 221 105 358.5t270 137.5q72 0 142.5 -27t113.5 -71q6 -6 17 -6q18 0 38 25.5t35 60.5h137v-828q0 -33 29 -53t74 -18q115 0 185.5 127.5t70.5 334.5q0 202 -92.5 356.5t-261.5 239t-390 84.5q-356 0 -574 -210t-218 -554q0 -332 204.5 -534.5t538.5 -202.5
q117 0 251.5 43t238.5 113l63 -47q-100 -87 -258 -140t-317 -53q-241 0 -425.5 101.5t-285 286.5t-100.5 427q0 190 63.5 349t178 270t279 173t361.5 62q185 0 340.5 -55t264 -154t169 -241.5t60.5 -311.5q0 -252 -114.5 -406.5t-301.5 -154.5q-90 0 -152.5 37.5
t-92.5 104.5q-44 -47 -122 -81t-157 -34q-160 0 -263.5 136t-103.5 355zM756 571q0 -132 62.5 -215.5t158.5 -83.5q59 0 108 32.5t74 86.5v367q-23 53 -71.5 83.5t-108.5 30.5q-98 0 -160.5 -83.5t-62.5 -217.5z" />
    <glyph glyph-name="A" unicode="A" horiz-adv-x="1339" 
d="M567 1434h207l537 -1434h-271l-104 279h-528l-109 -279h-268zM670 995l-185 -499h371z" />
    <glyph glyph-name="B" unicode="B" horiz-adv-x="1222" 
d="M168 1434h471q183 0 296.5 -101.5t113.5 -259.5q0 -104 -49.5 -184.5t-133.5 -114.5q131 -34 211 -138.5t80 -240.5q0 -177 -132.5 -286t-348.5 -109h-508v1434zM428 1229v-381h158q96 0 154.5 52.5t58.5 137.5q0 86 -58 138.5t-155 52.5h-158zM428 205h205
q117 0 188.5 61t71.5 162t-73 164t-191 63h-201v-450z" />
    <glyph glyph-name="C" unicode="C" horiz-adv-x="1361" 
d="M1053 346l252 -96q-80 -124 -217.5 -197t-296.5 -73q-321 0 -518 203t-197 534t197 534t518 203q159 0 296.5 -72.5t217.5 -197.5l-252 -97q-46 61 -121.5 96.5t-163.5 35.5q-189 0 -306.5 -138.5t-117.5 -363.5t117.5 -363.5t306.5 -138.5q88 0 163.5 35t121.5 96z" />
    <glyph glyph-name="D" unicode="D" horiz-adv-x="1361" 
d="M168 0v1434h467q293 0 471 -197t178 -520t-178 -520t-471 -197h-467zM426 236h209q172 0 276.5 132t104.5 349t-104.5 349t-276.5 132h-209v-962z" />
    <glyph glyph-name="E" unicode="E" horiz-adv-x="1142" 
d="M170 0v1434h897v-236h-639v-403l545 2v-232h-545v-329h639v-236h-897z" />
    <glyph glyph-name="F" unicode="F" horiz-adv-x="1101" 
d="M170 0v1434h897v-236h-639v-389h545v-229h-545v-580h-258z" />
    <glyph glyph-name="G" unicode="G" horiz-adv-x="1431" 
d="M743 530v236l582 -2v-496q-74 -132 -224.5 -210t-336.5 -78q-199 0 -355.5 91.5t-244.5 259.5t-88 386q0 331 197 534t518 203q159 0 296.5 -73t217.5 -197l-252 -97q-46 61 -121.5 96.5t-163.5 35.5q-189 0 -306.5 -138.5t-117.5 -363.5t116 -363.5t300 -138.5
q94 0 176.5 36t128.5 95v182z" />
    <glyph glyph-name="H" unicode="H" horiz-adv-x="1419" 
d="M170 0v1434h256v-639h567v639h258v-1434h-258v559h-567v-559h-256z" />
    <glyph glyph-name="I" unicode="I" horiz-adv-x="593" 
d="M168 0v1434h258v-1434h-258z" />
    <glyph glyph-name="J" unicode="J" horiz-adv-x="694" 
d="M270 188v1246h258v-1305q0 -204 -137.5 -379.5t-361.5 -257.5l-74 215q162 100 238.5 216.5t76.5 264.5z" />
    <glyph glyph-name="K" unicode="K" horiz-adv-x="1212" 
d="M168 1434h258v-785l467 785h278l-436 -732q183 -57 310 -249.5t153 -452.5h-285q-20 225 -154 399t-333 236v-635h-258v1434z" />
    <glyph glyph-name="L" unicode="L" horiz-adv-x="1142" 
d="M170 0v1434h256v-1198h698v-236h-954z" />
    <glyph glyph-name="M" unicode="M" horiz-adv-x="1675" 
d="M170 0v1434h201l467 -744l469 744h200v-1434h-256l-2 897l-409 -631l-412 631v-897h-258z" />
    <glyph glyph-name="N" unicode="N" horiz-adv-x="1409" 
d="M170 0v1434h217l596 -934v934h260v-1434h-215l-600 934v-934h-258z" />
    <glyph glyph-name="O" unicode="O" horiz-adv-x="1527" 
d="M76 717q0 331 189.5 534t498.5 203q204 0 360 -91.5t241 -259t85 -386.5t-85 -386.5t-241 -259t-360 -91.5q-309 0 -498.5 203t-189.5 534zM340 717q0 -229 116.5 -368.5t307.5 -139.5q190 0 306 139.5t116 368.5t-116 368.5t-306 139.5q-191 0 -307.5 -139.5
t-116.5 -368.5z" />
    <glyph glyph-name="P" unicode="P" horiz-adv-x="1167" 
d="M168 1434h430q242 0 388.5 -130.5t146.5 -347.5t-147 -350t-388 -133h-172v-473h-258v1434zM426 709h184q116 0 185 66t69 179q0 110 -69.5 177t-184.5 67h-184v-489z" />
    <glyph glyph-name="Q" unicode="Q" horiz-adv-x="1527" 
d="M76 717q0 331 189.5 534t498.5 203q204 0 360 -91.5t241 -259t85 -386.5q0 -307 -163.5 -505.5t-436.5 -227.5q125 -93 272.5 -147t292.5 -58l-98 -271q-249 20 -491.5 170t-397.5 379q-166 89 -259 260.5t-93 399.5zM340 717q0 -229 116.5 -368.5t307.5 -139.5
q190 0 306 139.5t116 368.5t-116 368.5t-306 139.5q-191 0 -307.5 -139.5t-116.5 -368.5z" />
    <glyph glyph-name="R" unicode="R" horiz-adv-x="1202" 
d="M168 1434h430q242 0 388.5 -130.5t146.5 -347.5q0 -148 -72 -259t-201 -167q121 -40 204.5 -185t100.5 -345h-278q-9 179 -100.5 309t-231.5 164h-129v-473h-258v1434zM426 709h184q115 0 184.5 67t69.5 178q0 110 -69.5 177t-184.5 67h-184v-489z" />
    <glyph glyph-name="S" unicode="S" horiz-adv-x="1220" 
d="M551 1456q144 0 304.5 -61t281.5 -160l-119 -201q-77 77 -210 132t-243 55q-74 0 -122 -27t-60 -78q-13 -39 8 -80.5t76 -72.5l444 -246q217 -114 217 -344q0 -180 -126 -286.5t-340 -106.5q-173 0 -343.5 67.5t-271.5 177.5l100 217q79 -89 206.5 -153.5t252.5 -79.5
q110 -12 180.5 18.5t83.5 100.5q18 110 -116 188l-453 256q-188 105 -188 305q1 168 124.5 273.5t313.5 105.5z" />
    <glyph glyph-name="T" unicode="T" horiz-adv-x="1261" 
d="M504 0v1198h-484v236h1221v-236h-481v-1198h-256z" />
    <glyph glyph-name="U" unicode="U" horiz-adv-x="1441" 
d="M147 563v871h259l2 -893q0 -146 88 -236t231 -90q144 0 232 89.5t88 236.5v893h258v-871q0 -263 -158.5 -423t-419.5 -160t-420.5 160.5t-159.5 422.5z" />
    <glyph glyph-name="V" unicode="V" horiz-adv-x="1335" 
d="M668 410l360 1024h277l-510 -1434h-254l-510 1434h274z" />
    <glyph glyph-name="W" unicode="W" horiz-adv-x="1785" 
d="M537 332l254 1102h204l252 -1102l232 1102h266l-330 -1434h-319l-199 786l-195 -786h-331l-330 1434h264z" />
    <glyph glyph-name="X" unicode="X" horiz-adv-x="1429" 
d="M1051 1434h309l-490 -717l490 -717h-307l-338 492l-336 -492h-309l491 717l-491 717h309l336 -492z" />
    <glyph glyph-name="Y" unicode="Y" horiz-adv-x="1236" 
d="M621 803l305 631h278l-454 -983v-451h-258v453l-457 981h278z" />
    <glyph glyph-name="Z" unicode="Z" horiz-adv-x="1269" 
d="M141 1434h1061l-682 -1198h694v-236h-1138l698 1198h-633v236z" />
    <glyph glyph-name="bracketleft" unicode="[" horiz-adv-x="577" 
d="M92 1524h393v-152h-221v-1597h221v-152h-393v1901z" />
    <glyph glyph-name="backslash" unicode="\" horiz-adv-x="935" 
d="M915 -328h-133l-762 1864h134z" />
    <glyph glyph-name="bracketright" unicode="]" horiz-adv-x="577" 
d="M92 1524h393v-1901h-393v152h221v1597h-221v152z" />
    <glyph glyph-name="asciicircum" unicode="^" horiz-adv-x="636" 
d="M92 1130l191 406h71l189 -406h-80l-146 310l-147 -310h-78z" />
    <glyph glyph-name="underscore" unicode="_" horiz-adv-x="1003" 
d="M92 -133v82h819v-82h-819z" />
    <glyph glyph-name="grave" unicode="`" horiz-adv-x="557" 
d="M389 1163l-297 291l219 35l152 -326h-74z" />
    <glyph glyph-name="a" unicode="a" horiz-adv-x="997" 
d="M502 1044q171 0 278 -101t107 -265v-678h-180l-58 94q-55 -52 -142 -83t-175 -31q-128 0 -207.5 66.5t-79.5 178.5q0 108 74 202t212 153.5t310 64.5v27q0 79 -50 126.5t-132 47.5q-74 0 -155.5 -37t-141.5 -98l-60 180q72 69 181 111t219 42zM287 291q-6 -52 25 -81.5
t87 -29.5q54 0 121 28t121 73v213q-148 -6 -245.5 -62.5t-108.5 -140.5z" />
    <glyph glyph-name="b" unicode="b" horiz-adv-x="1118" 
d="M1059 508q0 -237 -113.5 -382.5t-294.5 -145.5q-79 0 -154 29.5t-118 76.5l-66 -86h-180v1536h246v-598q46 47 121 76.5t153 29.5q180 0 293 -148t113 -388zM815 508q0 146 -69 236t-173 90q-64 0 -116.5 -34t-77.5 -91v-396q27 -58 79.5 -92.5t116.5 -34.5
q104 0 172 89.5t68 232.5z" />
    <glyph glyph-name="c" unicode="c" horiz-adv-x="1032" 
d="M598 1044q127 0 240 -45t178 -120l-203 -123q-33 37 -88 59.5t-119 22.5q-127 0 -210 -90.5t-83 -235.5t83 -234.5t210 -89.5q61 0 117 21.5t90 58.5l203 -123q-65 -76 -177.5 -120.5t-240.5 -44.5q-232 0 -381 147.5t-149 384.5t149 384.5t381 147.5z" />
    <glyph glyph-name="d" unicode="d" horiz-adv-x="1116" 
d="M57 508q0 240 113 388t291 148q79 0 154.5 -29t121.5 -77v598h246v-1536h-180l-66 86q-43 -47 -118 -76.5t-154 -29.5q-181 0 -294.5 145.5t-113.5 382.5zM301 508q0 -143 68 -232.5t172 -89.5q64 0 116.5 34.5t79.5 92.5v396q-25 57 -77.5 91t-116.5 34q-106 0 -174 -90
t-68 -236z" />
    <glyph glyph-name="e" unicode="e" horiz-adv-x="1114" 
d="M569 1044q224 0 359.5 -148.5t138.5 -389.5l-754 2q0 -145 76 -232.5t201 -87.5q82 0 159 39.5t121 104.5l195 -107q-65 -111 -197.5 -178t-287.5 -67q-230 0 -371 146.5t-141 385.5t138 385.5t363 146.5zM567 844q-88 0 -153.5 -59t-85.5 -156h479q-19 97 -85 156
t-155 59z" />
    <glyph glyph-name="f" unicode="f" horiz-adv-x="772" 
d="M31 1024h147v111q-1 182 93.5 292.5t256.5 116.5q83 3 173 -21.5t157 -68.5l-92 -190q-100 77 -201 65q-66 -8 -104.5 -61t-38.5 -144v-100h295v-207h-295v-817h-244v817h-147v207z" />
    <glyph glyph-name="g" unicode="g" horiz-adv-x="1028" 
d="M502 1047q92 0 168 -31l164 182l147 -68l-178 -194q108 -105 108 -277q0 -175 -112.5 -282t-296.5 -107q-38 0 -72 6q-67 -36 -78 -69q-10 -23 11.5 -36t66.5 -13l158 2q171 1 277 -85.5t106 -226.5q0 -145 -119.5 -232t-345.5 -87q-205 0 -333 69.5t-128 178.5
q0 63 45.5 113t120.5 75q-72 20 -104 72t-13 115q14 52 63.5 97.5t125.5 72.5q-91 48 -141 135t-50 202q0 174 113 281t297 107zM502 872q-85 0 -137 -59t-52 -154q0 -96 52 -154.5t137 -58.5t136.5 58t51.5 155q0 95 -51.5 154t-136.5 59zM365 -45q-80 -60 -80 -131
q0 -56 56 -91.5t148 -35.5h58q90 0 146.5 36t56.5 95q0 57 -51.5 92t-137.5 35h-196z" />
    <glyph glyph-name="h" unicode="h" horiz-adv-x="1142" 
d="M131 0v1536h246v-610q62 54 145.5 86t165.5 32q155 0 249.5 -115.5t94.5 -305.5v-623h-246l-2 561q0 118 -51.5 188t-138.5 70q-58 0 -117 -29.5t-100 -80.5v-709h-246z" />
    <glyph glyph-name="i" unicode="i" horiz-adv-x="522" 
d="M111 1407q0 67 41.5 108t107.5 41q68 0 110 -41t42 -108q0 -69 -42 -110.5t-110 -41.5q-66 0 -107.5 41.5t-41.5 110.5zM137 0v1024h246v-1024h-246z" />
    <glyph glyph-name="j" unicode="j" horiz-adv-x="573" 
d="M166 1407q0 67 40.5 108t106.5 41t107 -41t41 -108q0 -69 -41 -110.5t-107 -41.5t-106.5 41.5t-40.5 110.5zM434 1024v-1165q0 -177 -92 -284t-246 -107q-73 0 -153 24.5t-136 65.5l93 190q76 -59 149 -59q64 0 102.5 57.5t36.5 151.5v1126h246z" />
    <glyph glyph-name="k" unicode="k" horiz-adv-x="1064" 
d="M131 1434h246v-889l356 479h254l-346 -461q138 -50 238.5 -204.5t126.5 -358.5h-254q-22 168 -123.5 300.5t-251.5 188.5v-489h-246v1434z" />
    <glyph glyph-name="l" unicode="l" horiz-adv-x="507" 
d="M131 0v1536h246v-1536h-246z" />
    <glyph glyph-name="m" unicode="m" horiz-adv-x="1611" 
d="M111 0v1024h180l65 -111q71 60 151 95.5t152 35.5q77 0 137.5 -40t94.5 -113q74 71 165.5 112t174.5 41q122 0 196 -88.5t74 -234.5v-721h-246v651q0 72 -33.5 120t-97.5 48q-51 0 -102.5 -29t-91.5 -79v-711h-246l-2 651q0 73 -32.5 120.5t-96.5 47.5q-52 0 -103.5 -29
t-93.5 -81v-709h-245z" />
    <glyph glyph-name="n" unicode="n" horiz-adv-x="1142" 
d="M131 0v1024h180l66 -111q71 60 160.5 95.5t177.5 35.5q143 0 230 -94.5t87 -249.5v-700h-246l-2 561q0 117 -52 187.5t-138 70.5q-58 0 -117 -29.5t-100 -80.5v-709h-246z" />
    <glyph glyph-name="o" unicode="o" horiz-adv-x="1167" 
d="M68 512q0 239 142 385.5t374 146.5q231 0 373.5 -146.5t142.5 -385.5t-142 -385.5t-374 -146.5t-374 146.5t-142 385.5zM313 512q0 -146 74.5 -235t196.5 -89t196 89t74 235t-74.5 236t-195.5 90q-122 0 -196.5 -90t-74.5 -236z" />
    <glyph glyph-name="p" unicode="p" horiz-adv-x="1128" 
d="M1059 516q0 -240 -113 -388t-291 -148q-79 0 -154.5 29t-121.5 77v-598h-246v1536h180l66 -86q42 49 116.5 77.5t155.5 28.5q181 0 294.5 -145.5t113.5 -382.5zM815 516q0 143 -68 232.5t-172 89.5q-64 0 -116.5 -34.5t-79.5 -92.5v-396q25 -57 77 -91t115 -34
q106 0 175 90t69 236z" />
    <glyph glyph-name="q" unicode="q" horiz-adv-x="1105" 
d="M45 516q0 236 114 382t294 146q81 0 156 -29t118 -77l66 86h180v-1536h-246v596q-46 -46 -121.5 -75t-154.5 -29q-180 0 -293 148t-113 388zM291 516q0 -146 68 -237t173 -91q63 0 116.5 34t78.5 91v398q-26 57 -80.5 92t-118.5 35q-103 0 -170 -89.5t-67 -232.5z" />
    <glyph glyph-name="r" unicode="r" horiz-adv-x="843" 
d="M874 979l-81 -193q-93 66 -191 66q-70 0 -128.5 -38t-94.5 -103v-711h-246v1022h180l66 -94q43 53 113.5 84.5t146.5 31.5q118 0 235 -65z" />
    <glyph glyph-name="s" unicode="s" horiz-adv-x="870" 
d="M381 1044q109 0 229.5 -47t212.5 -123l-102 -169q-74 65 -153 103t-144 46q-56 7 -90.5 -8t-44.5 -45q-9 -26 5 -53.5t42 -45.5l317 -176q160 -84 160 -256q0 -131 -96 -210.5t-252 -79.5q-124 0 -246.5 50.5t-193.5 133.5l84 186q61 -72 168 -130t196 -58q53 0 88 23
t35 67q0 64 -76 108l-313 181q-69 39 -109.5 109.5t-34.5 150.5q9 107 98 175t220 68z" />
    <glyph glyph-name="t" unicode="t" horiz-adv-x="851" 
d="M33 817v207h176v305l119 207h127v-512h270v-207h-270v-403q0 -95 36.5 -156t104.5 -61q69 0 131 51l115 -182q-62 -38 -145 -62t-158 -24q-149 0 -239.5 95.5t-90.5 252.5v489h-176z" />
    <glyph glyph-name="u" unicode="u" horiz-adv-x="1122" 
d="M1012 1024v-1024h-181l-65 111q-67 -60 -156.5 -95.5t-171.5 -35.5q-146 0 -235.5 115.5t-89.5 305.5v623h245v-561q0 -117 53 -187.5t140 -70.5q56 0 115 30t100 80v709h246z" />
    <glyph glyph-name="v" unicode="v" horiz-adv-x="1030" 
d="M516 268l258 756h254l-379 -1024h-268l-381 1024h258z" />
    <glyph glyph-name="w" unicode="w" horiz-adv-x="1546" 
d="M487 252l189 772h194l189 -772l190 772h256l-297 -1024h-272l-162 535l-162 -535h-274l-295 1024h256z" />
    <glyph glyph-name="x" unicode="x" horiz-adv-x="1028" 
d="M377 512l-336 512h274l199 -301l201 301h274l-338 -512l338 -512h-274l-201 301l-201 -301h-274z" />
    <glyph glyph-name="y" unicode="y" horiz-adv-x="1067" 
d="M532 270l263 754h243l-420 -1137q-61 -165 -189.5 -278t-278.5 -133l-54 192q209 37 316 322l-398 1034h244z" />
    <glyph glyph-name="z" unicode="z" horiz-adv-x="978" 
d="M35 0l512 823h-453v201h858l-512 -823h504v-201h-909z" />
    <glyph glyph-name="braceleft" unicode="{" horiz-adv-x="634" 
d="M51 530v86q33 22 59 45t44.5 43t30.5 46t20 44.5t10.5 48t3 47t-3.5 51t-7 50.5t-10 55t-10 56q-12 69 -10.5 127t16.5 100t39.5 75.5t57 54t71 36t80.5 21t85.5 9t86.5 -0.5v-107q-36 0 -62.5 -1.5t-63.5 -8.5t-62.5 -19.5t-50.5 -36.5t-36.5 -57t-12 -83.5t15.5 -114.5
q12 -48 19 -86.5t11 -89.5t-4 -95t-25 -89.5t-53.5 -87t-88.5 -75.5q45 -29 78 -65.5t52 -71t28.5 -79t12 -79.5t-2 -84t-10 -80.5t-15.5 -80.5q-10 -50 -11 -91t7.5 -71t21.5 -53t35 -38.5t44.5 -25.5t53 -15t58 -7t61.5 -2v-107q-41 -2 -77 -1t-77 6t-73.5 15t-67 26
t-58 39.5t-45 55.5t-29.5 73.5t-11 93.5t10 116q3 15 8 43q9 47 12.5 70.5t7.5 65t0 66t-13.5 60t-28 62t-49 57.5t-72.5 59z" />
    <glyph glyph-name="bar" unicode="|" horiz-adv-x="323" 
d="M92 -512v2048h139v-2048h-139z" />
    <glyph glyph-name="braceright" unicode="}" horiz-adv-x="634" 
d="M584 616v-86q-42 -28 -72.5 -58.5t-49 -58t-28.5 -61.5t-13 -60.5t0 -65.5t7.5 -65.5t12.5 -70.5q5 -28 8 -43q12 -70 10 -129t-17 -101t-39.5 -76t-57.5 -54.5t-71.5 -35.5t-80.5 -20t-86 -8.5t-87 0.5l3 107q34 0 61 2t57.5 7t53 15t44 25.5t34.5 38.5t21.5 53t7.5 71
t-11 91q-10 49 -15.5 80.5t-10 80.5t-2 84t12 79.5t28.5 79t52 71t78 65.5q-52 34 -88.5 75.5t-53.5 87t-25 89.5t-4 95t11 89.5t19 86.5q16 64 15.5 114.5t-12 83.5t-36.5 57t-50.5 36.5t-62 19.5t-63 8.5t-61.5 1.5l-3 107q40 2 76.5 1t77 -6.5t73.5 -15.5t67 -26
t58 -39.5t45.5 -55.5t30 -73t11.5 -92.5t-10 -114.5q-3 -17 -10.5 -56t-10.5 -55t-7.5 -50.5t-3.5 -51.5t3 -47t10 -48t20 -44t30.5 -46t44.5 -43t59 -45z" />
    <glyph glyph-name="asciitilde" unicode="~" horiz-adv-x="1062" 
d="M430 715q52 0 112.5 -16.5t105 -37t95.5 -37t88 -16.5q49 0 88 27.5t52 81.5l200 2q-30 -125 -112 -192.5t-215 -67.5q-62 0 -117.5 15.5t-89.5 34.5t-77.5 34.5t-84.5 15.5q-51 0 -96.5 -22t-65.5 -70h-223q36 100 127 174t213 74z" />
    <glyph glyph-name="uni00A0" unicode="&#xa0;" 
 />
    <glyph glyph-name="exclamdown" unicode="&#xa1;" horiz-adv-x="483" 
d="M393 795q0 -67 -41.5 -109.5t-107.5 -42.5q-67 0 -108.5 42t-41.5 110q0 65 41.5 106t108.5 41q66 0 107.5 -41t41.5 -106zM291 481l82 -993h-258l82 993h94z" />
    <glyph glyph-name="cent" unicode="&#xa2;" horiz-adv-x="1032" 
d="M518 -266v252q-202 25 -326 167.5t-124 358.5t124 358.5t326 167.5v252h107v-248q121 -4 225 -48t166 -115l-203 -123q-29 34 -79.5 55.5t-108.5 24.5v-648q117 6 188 80l203 -123q-62 -71 -166.5 -115t-224.5 -48v-248h-107zM518 201v622q-94 -28 -149.5 -110.5
t-55.5 -200.5t55.5 -200.5t149.5 -110.5z" />
    <glyph glyph-name="sterling" unicode="&#xa3;" horiz-adv-x="1183" 
d="M553 1536q145 0 263.5 -41t193.5 -106l-66 -191q-64 64 -158.5 105.5t-179.5 44.5q-117 4 -169 -62t-19 -170q57 -172 71 -274h281v-156h-274q3 -146 -16.5 -254.5t-82.5 -208.5q61 15 113 15q37 0 94 -11q24 -4 81 -18t87 -14q103 0 156 81h182q-28 -136 -117.5 -209.5
t-220.5 -84.5q-73 -5 -199.5 16.5t-166.5 24.5q-62 8 -91 8q-86 0 -174 -31h-28q116 227 150.5 374.5t12.5 311.5h-182v156h160q-17 80 -80 282q-58 196 44.5 304t334.5 108z" />
    <glyph glyph-name="currency" unicode="&#xa4;" horiz-adv-x="868" 
d="M436 387q-102 0 -176 49l-121 -141l-61 53l119 137q-38 38 -60 100t-22 132q0 138 80 227l-117 133l61 53l119 -135q74 49 176 49q110 0 180 -51l123 137l62 -53l-123 -135q78 -95 78 -225q0 -65 -22.5 -127t-61.5 -105l127 -139l-60 -51l-129 139q-73 -47 -172 -47z
M221 715q0 -98 59 -158.5t154 -60.5q96 0 154.5 60t58.5 159q0 100 -58.5 161.5t-154.5 61.5q-95 0 -154 -61.5t-59 -161.5z" />
    <glyph glyph-name="yen" unicode="&#xa5;" horiz-adv-x="1239" 
d="M227 463v151h191l-381 820h276l308 -631l307 631h276l-379 -820h217v-151h-286l-4 -12v-56h290v-151h-290v-244h-258v244h-267v151h267v58l-7 10h-260z" />
    <glyph glyph-name="brokenbar" unicode="&#xa6;" horiz-adv-x="325" 
d="M92 1536h139v-819h-139v819zM92 307h139v-819h-139v819z" />
    <glyph glyph-name="section" unicode="&#xa7;" horiz-adv-x="1251" 
d="M629 1456q145 0 306 -61t282 -160l-121 -201q-57 58 -165 106.5t-190 59.5q-66 14 -123 14q-131 0 -153 -90q-13 -42 7 -86.5t75 -74.5l414 -224q121 -65 184 -165t63 -216q0 -94 -45.5 -179t-122.5 -138q82 -111 82 -240q0 -172 -128 -275.5t-343 -103.5
q-173 0 -343.5 67t-272.5 177l102 217q91 -96 240 -162.5t280 -66.5q81 0 133 26.5t64 75.5q14 57 -32.5 123t-135.5 117l-383 211q-201 109 -201 315q0 102 51.5 184.5t139.5 129.5q-105 100 -105 243q1 167 125.5 272t315.5 105zM772 553l-242 131q-60 -5 -101 -36
t-50 -81q-14 -41 6 -85.5t74 -75.5l344 -195q53 3 91.5 32.5t45.5 73.5q17 54 -30.5 121.5t-137.5 114.5z" />
    <glyph glyph-name="dieresis" unicode="&#xa8;" horiz-adv-x="778" 
d="M94 1307q0 51 30.5 81.5t82.5 30.5q51 0 80.5 -30.5t29.5 -81.5q0 -52 -29.5 -82.5t-80.5 -30.5q-53 0 -83 30t-30 83zM463 1307q0 51 30 81.5t82 30.5q51 0 82 -30.5t31 -81.5q0 -52 -31 -82.5t-82 -30.5q-52 0 -82 30t-30 83z" />
    <glyph glyph-name="copyright" unicode="&#xa9;" horiz-adv-x="1642" 
d="M821 -31q-328 0 -528.5 205.5t-200.5 540.5q0 338 200 543.5t529 205.5t529 -205.5t200 -543.5q0 -335 -200.5 -540.5t-528.5 -205.5zM182 715q0 -298 176 -480t463 -182t463 182t176 480q0 299 -176 482t-463 183t-463 -183t-176 -482zM1016 500l147 -56
q-46 -73 -127 -116t-174 -43q-187 0 -302.5 119t-115.5 313t115.5 313t302.5 119q93 0 174 -43t127 -117l-147 -55q-61 78 -166 78q-112 0 -180 -81.5t-68 -213.5t68.5 -212.5t179.5 -80.5q106 0 166 76z" />
    <glyph glyph-name="ordfeminine" unicode="&#xaa;" horiz-adv-x="589" 
d="M311 1454q82 0 133.5 -49t51.5 -127v-324h-86l-27 45q-62 -55 -152 -55q-62 0 -99.5 32t-37.5 87q0 78 79 135t206 64v14q0 37 -24 59.5t-64 22.5q-77 0 -141 -64l-29 86q36 33 87.5 53.5t102.5 20.5zM209 1083q-3 -21 11 -32t40 -11q62 0 119 47v91q-72 -6 -118.5 -32
t-51.5 -63z" />
    <glyph glyph-name="guillemotleft" unicode="&#xab;" horiz-adv-x="917" 
d="M506 193h-139l-275 327l275 328h139l-201 -328zM823 193h-139l-274 327l274 328h139l-200 -328z" />
    <glyph glyph-name="logicalnot" unicode="&#xac;" horiz-adv-x="1050" 
d="M92 659v115h866v-403h-114v288h-752z" />
    <glyph glyph-name="registered" unicode="&#xae;" horiz-adv-x="1034" 
d="M92 1079q0 201 117 324t309 123q191 0 307.5 -123t116.5 -324t-116.5 -323.5t-307.5 -122.5q-192 0 -309 122.5t-117 323.5zM145 1079q0 -177 103 -285t270 -108t269 108t102 285t-102 285.5t-269 108.5t-270 -108.5t-103 -285.5zM356 1356h158q88 0 141.5 -48t53.5 -126
q0 -54 -27 -94.5t-74 -61.5q44 -15 74.5 -67.5t38.5 -124.5h-103q-3 65 -36 112.5t-84 59.5h-47v-172h-95v522zM451 1090h67q41 0 66.5 25t25.5 65t-25.5 65t-66.5 25h-67v-180z" />
    <glyph glyph-name="macron" unicode="&#xaf;" horiz-adv-x="696" 
d="M92 1165v111h512v-111h-512z" />
    <glyph glyph-name="degree" unicode="&#xb0;" horiz-adv-x="376" 
d="M94 1356q0 44 25.5 71t68.5 27t70 -27t27 -71t-27 -71.5t-70 -27.5t-68.5 27.5t-25.5 71.5zM139 1356q0 -28 13.5 -45t35.5 -17q23 0 37.5 17t14.5 45q0 26 -14.5 42.5t-37.5 16.5q-22 0 -35.5 -16.5t-13.5 -42.5z" />
    <glyph glyph-name="plusminus" unicode="&#xb1;" horiz-adv-x="831" 
d="M92 760v139h254v275h139v-275h254v-139h-254v-275h-139v275h-254zM98 266v140h635v-140h-635z" />
    <glyph glyph-name="twosuperior" unicode="&#xb2;" horiz-adv-x="825" 
d="M408 1706q131 0 209.5 -68t78.5 -180q0 -214 -305 -547h340v-159h-606v98q175 163 282.5 316t110.5 247q2 61 -39 100t-108 39q-62 0 -119.5 -32.5t-101.5 -89.5l-58 135q128 141 316 141z" />
    <glyph glyph-name="threesuperior" unicode="&#xb3;" horiz-adv-x="790" 
d="M408 1710q132 0 211 -63.5t79 -169.5q0 -93 -59.5 -158t-157.5 -78q97 -15 156 -81.5t59 -162.5q0 -113 -81 -181t-214 -68q-89 0 -173.5 30.5t-135.5 81.5l55 137q40 -43 103 -69.5t125 -26.5q70 0 110.5 34t40.5 89q0 64 -58 105.5t-153 46.5v129q95 5 153 43t58 96
q0 51 -41 83t-110 32q-61 0 -124 -27.5t-104 -71.5l-53 139q51 50 137.5 80.5t176.5 30.5z" />
    <glyph glyph-name="acute" unicode="&#xb4;" horiz-adv-x="557" 
d="M92 1163l154 326l217 -35l-281 -291h-90z" />
    <glyph glyph-name="paragraph" unicode="&#xb6;" horiz-adv-x="1347" 
d="M1133 -250v1766h-394v-1766h-41v926h-166q-196 0 -317 119t-121 313q0 193 120.5 310.5t317.5 117.5h642v-1786h-41z" />
    <glyph glyph-name="periodcentered" unicode="&#xb7;" horiz-adv-x="440" 
d="M94 467q0 58 35 93.5t92 35.5t91 -35t34 -94q0 -56 -34 -90.5t-91 -34.5t-92 34.5t-35 90.5z" />
    <glyph glyph-name="cedilla" unicode="&#xb8;" horiz-adv-x="516" 
d="M424 -221q0 -119 -94 -198t-248 -89l18 135q60 3 103 40t53 95q7 43 -8 67t-49 24q-21 0 -54 -13l84 164h107l-39 -72q59 -5 93 -44.5t34 -108.5z" />
    <glyph glyph-name="onesuperior" unicode="&#xb9;" horiz-adv-x="552" 
d="M293 735v688l-148 -147l-53 143l260 275h125v-959h-184z" />
    <glyph glyph-name="ordmasculine" unicode="&#xba;" horiz-adv-x="733" 
d="M92 1303q0 126 76 204t199 78t198.5 -78t75.5 -204q0 -128 -75 -205.5t-199 -77.5q-123 0 -199 78t-76 205zM223 1303q0 -78 40 -126.5t104 -48.5t103.5 48.5t39.5 126.5q0 77 -39.5 124.5t-103.5 47.5t-104 -47.5t-40 -124.5z" />
    <glyph glyph-name="guillemotright" unicode="&#xbb;" horiz-adv-x="917" 
d="M551 193h-141l202 327l-200 328h139l272 -328zM233 193h-141l203 327l-201 328h139l273 -328z" />
    <glyph glyph-name="onequarter" unicode="&#xbc;" horiz-adv-x="1251" 
d="M115 0h-23l1043 1434h22zM281 748v503l-109 -108l-37 96l189 195h82v-686h-125zM909 -4v139h-272v86l293 461h104v-451h70v-96h-70v-139h-125zM750 231h159v258z" />
    <glyph glyph-name="onehalf" unicode="&#xbd;" horiz-adv-x="1263" 
d="M156 0h-101l1043 1434h100zM258 748v503l-108 -108l-37 96l186 195h82v-686h-123zM926 696q94 0 151.5 -49t57.5 -131q0 -158 -224 -399h250v-117h-440v72q129 119 207.5 230.5t79.5 178.5q2 45 -28.5 74t-80.5 29q-44 0 -86.5 -24t-73.5 -66l-43 100q95 102 230 102z
" />
    <glyph glyph-name="threequarters" unicode="&#xbe;" horiz-adv-x="1277" 
d="M322 1452q97 0 155 -46.5t58 -123.5q0 -67 -43.5 -114t-114.5 -58q71 -11 113 -59.5t42 -118.5q0 -83 -59 -132.5t-156 -49.5q-65 0 -126.5 22t-98.5 59l41 101q29 -31 74.5 -50.5t89.5 -19.5q52 0 82.5 25t30.5 65q0 47 -43 76.5t-113 34.5v92q70 5 113 32.5t43 69.5
q0 37 -31 60.5t-80 23.5q-45 0 -91 -19.5t-75 -51.5l-39 100q37 37 99.5 59.5t128.5 22.5zM143 0h-22l1042 1434h23zM954 -4v139h-272v86l291 461h104v-451h72v-96h-72v-139h-123zM793 231h161v258z" />
    <glyph glyph-name="questiondown" unicode="&#xbf;" horiz-adv-x="1009" 
d="M688 793q0 -68 -42 -110t-109 -42q-66 0 -107 42t-41 110q0 65 41 106t107 41q67 0 109 -41t42 -106zM453 522h165q10 -67 -1.5 -132t-37.5 -117.5t-60 -102t-70.5 -94.5t-66.5 -86t-49.5 -84t-19.5 -82q0 -74 60.5 -121t150.5 -47q87 0 166.5 45t140.5 123l82 -166
q-183 -193 -438 -193q-177 0 -288 88t-111 218q0 54 22.5 108t58.5 100.5t78.5 93.5t84 97t74 102t49.5 116.5t10 133.5z" />
    <glyph glyph-name="Agrave" unicode="&#xc0;" horiz-adv-x="1339" 
d="M637 1573l-295 291l217 34l152 -325h-74zM567 1434h205l537 -1434h-269l-104 279h-528l-109 -279h-270zM668 995l-185 -499h373z" />
    <glyph glyph-name="Aacute" unicode="&#xc1;" horiz-adv-x="1339" 
d="M588 1573l151 325l217 -34l-278 -291h-90zM567 1434h205l537 -1434h-269l-104 279h-528l-109 -279h-270zM668 995l-185 -499h373z" />
    <glyph glyph-name="Acircumflex" unicode="&#xc2;" horiz-adv-x="1339" 
d="M670 1909l340 -350h-187l-153 151l-152 -151h-188zM567 1434h205l537 -1434h-269l-104 279h-528l-109 -279h-270zM668 995l-185 -499h373z" />
    <glyph glyph-name="Atilde" unicode="&#xc3;" horiz-adv-x="1339" 
d="M592 1769q34 0 93 -26.5t89 -26.5q50 0 76 47h74q-8 -62 -49.5 -110.5t-102.5 -48.5q-37 0 -96 29t-88 26q-48 -6 -72 -53h-90q18 69 62.5 116t103.5 47zM567 1434h205l537 -1434h-269l-104 279h-528l-109 -279h-270zM668 995l-185 -499h373z" />
    <glyph glyph-name="Adieresis" unicode="&#xc4;" horiz-adv-x="1339" 
d="M373 1716q0 51 30.5 82t81.5 31t82 -31t31 -82q0 -52 -31 -82t-82 -30t-81.5 30t-30.5 82zM741 1716q0 51 31 82t82 31t82 -31t31 -82q0 -52 -31 -82t-82 -30t-82 30t-31 82zM567 1434h205l537 -1434h-269l-104 279h-528l-109 -279h-270zM668 995l-185 -499h373z" />
    <glyph glyph-name="Aring" unicode="&#xc5;" horiz-adv-x="1339" 
d="M512 1724q0 69 43.5 111.5t112.5 42.5q70 0 112.5 -42.5t42.5 -111.5t-42.5 -111t-112.5 -42q-69 0 -112.5 42t-43.5 111zM596 1724q0 -37 20 -59.5t52 -22.5t51.5 22.5t19.5 59.5t-19.5 59.5t-51.5 22.5t-52 -22.5t-20 -59.5zM567 1434h205l537 -1434h-269l-104 279
h-528l-109 -279h-270zM668 995l-185 -499h373z" />
    <glyph glyph-name="AE" unicode="&#xc6;" horiz-adv-x="1896" 
d="M924 0v279h-461l-156 -279h-289l828 1434h977v-236h-641v-403l544 2v-232h-544v-329h641v-236h-899zM924 1098l-336 -602h336v602z" />
    <glyph glyph-name="Ccedilla" unicode="&#xc7;" horiz-adv-x="1361" 
d="M1053 346l252 -96q-83 -130 -224 -201t-299 -69l-26 -48q61 -5 94 -44t33 -109q0 -119 -93.5 -198t-248.5 -89l18 135q61 3 104 39.5t54 95.5q6 43 -9 67t-49 24q-23 0 -55 -13l76 146q-276 35 -440 232.5t-164 498.5q0 331 197 534t518 203q159 0 296.5 -72.5
t217.5 -197.5l-252 -97q-46 61 -121.5 96.5t-163.5 35.5q-189 0 -306.5 -138.5t-117.5 -363.5t117.5 -363.5t306.5 -138.5q88 0 163.5 35t121.5 96z" />
    <glyph glyph-name="Egrave" unicode="&#xc8;" horiz-adv-x="1140" 
d="M680 1573l-295 291l217 34l152 -325h-74zM168 0v1434h899v-236h-641v-403l545 2v-232h-545v-329h641v-236h-899z" />
    <glyph glyph-name="Eacute" unicode="&#xc9;" horiz-adv-x="1140" 
d="M508 1573l151 325l218 -34l-279 -291h-90zM168 0v1434h899v-236h-641v-403l545 2v-232h-545v-329h641v-236h-899z" />
    <glyph glyph-name="Ecircumflex" unicode="&#xca;" horiz-adv-x="1140" 
d="M639 1909l340 -350h-186l-154 151l-152 -151h-188zM168 0v1434h899v-236h-641v-403l545 2v-232h-545v-329h641v-236h-899z" />
    <glyph glyph-name="Edieresis" unicode="&#xcb;" horiz-adv-x="1140" 
d="M350 1716q0 51 31 82t82 31t81.5 -31t30.5 -82q0 -52 -30.5 -82t-81.5 -30t-82 30t-31 82zM719 1716q0 51 30.5 82t81.5 31t82 -31t31 -82q0 -52 -31 -82t-82 -30t-81.5 30t-30.5 82zM168 0v1434h899v-236h-641v-403l545 2v-232h-545v-329h641v-236h-899z" />
    <glyph glyph-name="Igrave" unicode="&#xcc;" horiz-adv-x="593" 
d="M330 1573l-297 291l217 34l153 -325h-73zM170 0v1434h258v-1434h-258z" />
    <glyph glyph-name="Iacute" unicode="&#xcd;" horiz-adv-x="593" 
d="M197 1573l153 325l217 -34l-280 -291h-90zM170 0v1434h258v-1434h-258z" />
    <glyph glyph-name="Icircumflex" unicode="&#xce;" horiz-adv-x="593" 
d="M299 1909l342 -350h-188l-152 151l-154 -151h-188zM170 0v1434h258v-1434h-258z" />
    <glyph glyph-name="Idieresis" unicode="&#xcf;" horiz-adv-x="593" 
d="M2 1716q0 51 31 82t82 31q52 0 82 -31t30 -82q0 -52 -29.5 -82t-82.5 -30q-51 0 -82 30t-31 82zM373 1716q0 51 30 82t82 31q51 0 81 -31t30 -82q0 -52 -30 -82t-81 -30q-53 0 -82.5 30t-29.5 82zM170 0v1434h258v-1434h-258z" />
    <glyph glyph-name="Eth" unicode="&#xd0;" horiz-adv-x="1361" 
d="M168 0v592h-156v164h156v678h467q293 0 471 -197t178 -520t-178 -520t-471 -197h-467zM426 236h209q172 0 276.5 132t104.5 349t-104.5 349t-276.5 132h-209v-442h229v-164h-229v-356z" />
    <glyph glyph-name="Ntilde" unicode="&#xd1;" horiz-adv-x="1409" 
d="M633 1769q35 0 94.5 -26.5t89.5 -26.5q50 0 76 47h74q-8 -62 -49.5 -110.5t-102.5 -48.5q-39 0 -97 29t-87 26q-48 -6 -72 -53h-90q19 69 62.5 116t101.5 47zM168 0v1434h217l598 -934v934h258v-1434h-213l-600 934v-934h-260z" />
    <glyph glyph-name="Ograve" unicode="&#xd2;" horiz-adv-x="1527" 
d="M819 1573l-297 291l217 34l154 -325h-74zM76 717q0 332 189 534.5t499 202.5q204 0 360 -91.5t241 -259t85 -386.5t-85 -386.5t-241 -259t-360 -91.5q-310 0 -499 202.5t-189 534.5zM340 717q0 -229 116.5 -368.5t307.5 -139.5q190 0 306 139.5t116 368.5t-116 368.5
t-306 139.5q-191 0 -307.5 -139.5t-116.5 -368.5z" />
    <glyph glyph-name="Oacute" unicode="&#xd3;" horiz-adv-x="1527" 
d="M666 1573l153 325l217 -34l-280 -291h-90zM76 717q0 332 189 534.5t499 202.5q204 0 360 -91.5t241 -259t85 -386.5t-85 -386.5t-241 -259t-360 -91.5q-310 0 -499 202.5t-189 534.5zM340 717q0 -229 116.5 -368.5t307.5 -139.5q190 0 306 139.5t116 368.5t-116 368.5
t-306 139.5q-191 0 -307.5 -139.5t-116.5 -368.5z" />
    <glyph glyph-name="Ocircumflex" unicode="&#xd4;" horiz-adv-x="1527" 
d="M764 1909l340 -350h-186l-154 151l-152 -151h-188zM76 717q0 332 189 534.5t499 202.5q204 0 360 -91.5t241 -259t85 -386.5t-85 -386.5t-241 -259t-360 -91.5q-310 0 -499 202.5t-189 534.5zM340 717q0 -229 116.5 -368.5t307.5 -139.5q190 0 306 139.5t116 368.5
t-116 368.5t-306 139.5q-191 0 -307.5 -139.5t-116.5 -368.5z" />
    <glyph glyph-name="Otilde" unicode="&#xd5;" horiz-adv-x="1527" 
d="M678 1769q35 0 94.5 -26.5t89.5 -26.5q50 0 76 47h74q-8 -62 -49.5 -110.5t-102.5 -48.5q-39 0 -97 29t-87 26q-48 -6 -72 -53h-90q19 69 62.5 116t101.5 47zM76 717q0 332 189 534.5t499 202.5q204 0 360 -91.5t241 -259t85 -386.5t-85 -386.5t-241 -259t-360 -91.5
q-310 0 -499 202.5t-189 534.5zM340 717q0 -229 116.5 -368.5t307.5 -139.5q190 0 306 139.5t116 368.5t-116 368.5t-306 139.5q-191 0 -307.5 -139.5t-116.5 -368.5z" />
    <glyph glyph-name="Odieresis" unicode="&#xd6;" horiz-adv-x="1527" 
d="M467 1716q0 51 31 82t82 31t81.5 -31t30.5 -82q0 -52 -30.5 -82t-81.5 -30t-82 30t-31 82zM836 1716q0 51 30.5 82t81.5 31t82 -31t31 -82q0 -52 -31 -82t-82 -30t-81.5 30t-30.5 82zM76 717q0 332 189 534.5t499 202.5q204 0 360 -91.5t241 -259t85 -386.5t-85 -386.5
t-241 -259t-360 -91.5q-310 0 -499 202.5t-189 534.5zM340 717q0 -229 116.5 -368.5t307.5 -139.5q190 0 306 139.5t116 368.5t-116 368.5t-306 139.5q-191 0 -307.5 -139.5t-116.5 -368.5z" />
    <glyph glyph-name="multiply" unicode="&#xd7;" horiz-adv-x="710" 
d="M92 885l90 90l172 -172l174 172l88 -90l-172 -172l172 -172l-88 -90l-174 172l-172 -172l-90 90l174 172z" />
    <glyph glyph-name="Oslash" unicode="&#xd8;" horiz-adv-x="1527" 
d="M76 717q0 332 189 534.5t499 202.5q114 0 219 -31l80 195h151l-102 -250q160 -90 249 -259t89 -392q0 -219 -85 -386.5t-241 -259t-360 -91.5q-116 0 -207 26l-102 -252h-154l125 305q-164 87 -257 259t-93 399zM340 717q0 -141 47 -252t133 -178l373 917q-59 21 -129 21
q-191 0 -307.5 -139.5t-116.5 -368.5zM1018 1137l-373 -912q49 -16 119 -16q190 0 306 139.5t116 368.5q0 137 -44 245t-124 175z" />
    <glyph glyph-name="Ugrave" unicode="&#xd9;" horiz-adv-x="1439" 
d="M739 1573l-295 291l218 34l151 -325h-74zM147 563v871h259v-893q2 -147 89.5 -236.5t231.5 -89.5t232 89.5t88 236.5v893h256l2 -871q0 -262 -159 -422.5t-419 -160.5q-261 0 -420.5 160.5t-159.5 422.5z" />
    <glyph glyph-name="Uacute" unicode="&#xda;" horiz-adv-x="1439" 
d="M647 1573l154 325l217 -34l-281 -291h-90zM147 563v871h259v-893q2 -147 89.5 -236.5t231.5 -89.5t232 89.5t88 236.5v893h256l2 -871q0 -262 -159 -422.5t-419 -160.5q-261 0 -420.5 160.5t-159.5 422.5z" />
    <glyph glyph-name="Ucircumflex" unicode="&#xdb;" horiz-adv-x="1439" 
d="M727 1909l340 -350h-186l-154 151l-152 -151h-188zM147 563v871h259v-893q2 -147 89.5 -236.5t231.5 -89.5t232 89.5t88 236.5v893h256l2 -871q0 -262 -159 -422.5t-419 -160.5q-261 0 -420.5 160.5t-159.5 422.5z" />
    <glyph glyph-name="Udieresis" unicode="&#xdc;" horiz-adv-x="1439" 
d="M430 1716q0 51 31 82t82 31t81.5 -31t30.5 -82q0 -52 -30.5 -82t-81.5 -30t-82 30t-31 82zM799 1716q0 51 30.5 82t81.5 31t82 -31t31 -82q0 -52 -31 -82t-82 -30t-81.5 30t-30.5 82zM147 563v871h259v-893q2 -147 89.5 -236.5t231.5 -89.5t232 89.5t88 236.5v893h256
l2 -871q0 -262 -159 -422.5t-419 -160.5q-261 0 -420.5 160.5t-159.5 422.5z" />
    <glyph glyph-name="Yacute" unicode="&#xdd;" horiz-adv-x="1239" 
d="M547 1573l151 325l217 -34l-278 -291h-90zM623 803l305 631h276l-452 -983v-451h-258v453l-457 981h276z" />
    <glyph glyph-name="Thorn" unicode="&#xde;" horiz-adv-x="1306" 
d="M168 0v1434h258v-185h190q282 0 453.5 -146t171.5 -386t-172 -387t-453 -146l-190 2v-186h-258zM426 422h190q158 0 254.5 81t96.5 214q0 134 -96.5 215.5t-254.5 81.5h-190v-592z" />
    <glyph glyph-name="germandbls" unicode="&#xdf;" horiz-adv-x="1187" 
d="M160 1055q0 86 24 154t63 111t93.5 71t112 39.5t122.5 11.5q202 0 327.5 -106.5t125.5 -278.5q0 -122 -61.5 -212.5t-163.5 -123.5q137 -19 224 -121.5t93 -253.5q7 -166 -85.5 -266t-252.5 -100q-74 0 -155 23t-140 60l2 203q47 -38 109.5 -60t118.5 -20
q75 3 121.5 52.5t46.5 126.5q2 106 -88 177.5t-236 78.5v163q103 6 167.5 70.5t64.5 165.5q0 93 -54 151t-141 58q-84 0 -132 -53.5t-48 -141.5v-1034h-258v1055z" />
    <glyph glyph-name="agrave" unicode="&#xe0;" horiz-adv-x="999" 
d="M592 1163l-297 291l217 35l154 -326h-74zM502 1044q171 0 278 -101t107 -265v-678h-180l-58 94q-55 -52 -142 -83t-175 -31q-128 0 -206.5 66t-78.5 179q-1 108 72.5 202t211.5 153.5t310 64.5v27q0 80 -49.5 127t-132.5 47q-74 0 -154.5 -37t-140.5 -98l-62 180
q74 70 182.5 111.5t217.5 41.5zM289 291q-6 -52 24 -81.5t86 -29.5q54 0 121.5 28.5t120.5 72.5v213q-148 -6 -245.5 -62.5t-106.5 -140.5z" />
    <glyph glyph-name="aacute" unicode="&#xe1;" horiz-adv-x="999" 
d="M414 1163l153 326l217 -35l-280 -291h-90zM502 1044q171 0 278 -101t107 -265v-678h-180l-58 94q-55 -52 -142 -83t-175 -31q-128 0 -206.5 66t-78.5 179q-1 108 72.5 202t211.5 153.5t310 64.5v27q0 80 -49.5 127t-132.5 47q-74 0 -154.5 -37t-140.5 -98l-62 180
q74 70 182.5 111.5t217.5 41.5zM289 291q-6 -52 24 -81.5t86 -29.5q54 0 121.5 28.5t120.5 72.5v213q-148 -6 -245.5 -62.5t-106.5 -140.5z" />
    <glyph glyph-name="acircumflex" unicode="&#xe2;" horiz-adv-x="999" 
d="M508 1499l340 -350h-189l-151 151l-152 -151h-190zM502 1044q171 0 278 -101t107 -265v-678h-180l-58 94q-55 -52 -142 -83t-175 -31q-128 0 -206.5 66t-78.5 179q-1 108 72.5 202t211.5 153.5t310 64.5v27q0 80 -49.5 127t-132.5 47q-74 0 -154.5 -37t-140.5 -98
l-62 180q74 70 182.5 111.5t217.5 41.5zM289 291q-6 -52 24 -81.5t86 -29.5q54 0 121.5 28.5t120.5 72.5v213q-148 -6 -245.5 -62.5t-106.5 -140.5z" />
    <glyph glyph-name="atilde" unicode="&#xe3;" horiz-adv-x="999" 
d="M446 1360q35 0 95 -26.5t90 -26.5q48 0 74 47h75q-8 -63 -49.5 -111.5t-103.5 -48.5q-37 0 -95.5 29t-87.5 26q-47 -6 -71 -53h-90q16 69 60 116.5t103 47.5zM502 1044q171 0 278 -101t107 -265v-678h-180l-58 94q-55 -52 -142 -83t-175 -31q-128 0 -206.5 66t-78.5 179
q-1 108 72.5 202t211.5 153.5t310 64.5v27q0 80 -49.5 127t-132.5 47q-74 0 -154.5 -37t-140.5 -98l-62 180q74 70 182.5 111.5t217.5 41.5zM289 291q-6 -52 24 -81.5t86 -29.5q54 0 121.5 28.5t120.5 72.5v213q-148 -6 -245.5 -62.5t-106.5 -140.5z" />
    <glyph glyph-name="adieresis" unicode="&#xe4;" horiz-adv-x="999" 
d="M227 1307q0 51 31 81.5t82 30.5t82 -30.5t31 -81.5q0 -52 -31 -82.5t-82 -30.5t-82 30.5t-31 82.5zM596 1307q0 51 31 81.5t82 30.5t81.5 -30.5t30.5 -81.5q0 -52 -30.5 -82.5t-81.5 -30.5t-82 30.5t-31 82.5zM502 1044q171 0 278 -101t107 -265v-678h-180l-58 94
q-55 -52 -142 -83t-175 -31q-128 0 -206.5 66t-78.5 179q-1 108 72.5 202t211.5 153.5t310 64.5v27q0 80 -49.5 127t-132.5 47q-74 0 -154.5 -37t-140.5 -98l-62 180q74 70 182.5 111.5t217.5 41.5zM289 291q-6 -52 24 -81.5t86 -29.5q54 0 121.5 28.5t120.5 72.5v213
q-148 -6 -245.5 -62.5t-106.5 -140.5z" />
    <glyph glyph-name="aring" unicode="&#xe5;" horiz-adv-x="997" 
d="M328 1315q0 69 43 111t112 42q70 0 113 -42t43 -111t-43 -111.5t-113 -42.5q-69 0 -112 42.5t-43 111.5zM412 1315q0 -37 19.5 -59.5t51.5 -22.5t52 22.5t20 59.5t-20 59.5t-52 22.5t-51.5 -22.5t-19.5 -59.5zM502 1044q171 0 278 -101t107 -265v-678h-180l-58 94
q-55 -52 -142 -83t-175 -31q-128 0 -207.5 66.5t-79.5 178.5q0 108 74 202t212 153.5t310 64.5v27q0 79 -50 126.5t-132 47.5q-74 0 -155.5 -37t-141.5 -98l-60 180q72 69 181 111t219 42zM287 291q-6 -52 25 -81.5t87 -29.5q54 0 121 28t121 73v213q-148 -6 -245.5 -62.5
t-108.5 -140.5z" />
    <glyph glyph-name="ae" unicode="&#xe6;" horiz-adv-x="1687" 
d="M1141 1044q225 0 360 -148.5t137 -389.5l-751 2q0 -136 72.5 -228t203.5 -92q82 0 159.5 39.5t121.5 104.5l192 -107q-63 -110 -196.5 -177.5t-288.5 -67.5q-126 0 -228.5 47.5t-170.5 134.5q-66 -83 -177.5 -132.5t-230.5 -49.5q-136 0 -217.5 66t-81.5 179
q0 108 74 202t212 153.5t310 64.5v27q0 79 -50 126.5t-132 47.5q-74 0 -155.5 -37t-141.5 -98l-60 180q72 69 181 111t219 42q96 0 172.5 -35t124.5 -100q135 135 342 135zM1139 844q-88 0 -153 -59t-85 -156h479q-20 97 -86 156t-155 59zM287 291q-6 -52 25 -81.5t87 -29.5
q54 0 121 28t121 73v213q-149 -6 -247 -62.5t-107 -140.5z" />
    <glyph glyph-name="ccedilla" unicode="&#xe7;" horiz-adv-x="1032" 
d="M598 1044q127 0 240 -45t178 -120l-203 -123q-33 37 -88 59.5t-119 22.5q-127 0 -210 -90.5t-83 -235.5t83 -234.5t210 -89.5q61 0 117 21.5t90 58.5l203 -123q-59 -68 -157.5 -112t-213.5 -51l-27 -50q59 -5 93 -44.5t34 -108.5q0 -119 -94.5 -198t-249.5 -89l21 135
q60 3 103 40t53 95q6 43 -9 67t-49 24q-22 0 -55 -13l74 144q-210 19 -340.5 162.5t-130.5 365.5q0 237 149 384.5t381 147.5z" />
    <glyph glyph-name="egrave" unicode="&#xe8;" horiz-adv-x="1114" 
d="M662 1163l-297 291l217 35l153 -326h-73zM569 1044q224 0 359.5 -148.5t138.5 -389.5l-754 2q0 -145 76 -232.5t201 -87.5q82 0 159 39.5t121 104.5l195 -107q-65 -111 -197.5 -178t-287.5 -67q-230 0 -371 146.5t-141 385.5t138 385.5t363 146.5zM567 844
q-88 0 -153.5 -59t-85.5 -156h479q-19 97 -85 156t-155 59z" />
    <glyph glyph-name="eacute" unicode="&#xe9;" horiz-adv-x="1114" 
d="M528 1163l154 326l217 -35l-281 -291h-90zM569 1044q224 0 359.5 -148.5t138.5 -389.5l-754 2q0 -145 76 -232.5t201 -87.5q82 0 159 39.5t121 104.5l195 -107q-65 -111 -197.5 -178t-287.5 -67q-230 0 -371 146.5t-141 385.5t138 385.5t363 146.5zM567 844
q-88 0 -153.5 -59t-85.5 -156h479q-19 97 -85 156t-155 59z" />
    <glyph glyph-name="ecircumflex" unicode="&#xea;" horiz-adv-x="1114" 
d="M569 1499l342 -350h-188l-152 151l-153 -151h-189zM569 1044q224 0 359.5 -148.5t138.5 -389.5l-754 2q0 -145 76 -232.5t201 -87.5q82 0 159 39.5t121 104.5l195 -107q-65 -111 -197.5 -178t-287.5 -67q-230 0 -371 146.5t-141 385.5t138 385.5t363 146.5zM567 844
q-88 0 -153.5 -59t-85.5 -156h479q-19 97 -85 156t-155 59z" />
    <glyph glyph-name="edieresis" unicode="&#xeb;" horiz-adv-x="1114" 
d="M315 1307q0 51 31 81.5t82 30.5t82 -30.5t31 -81.5q0 -52 -31 -82.5t-82 -30.5t-82 30.5t-31 82.5zM684 1307q0 51 31 81.5t82 30.5t81.5 -30.5t30.5 -81.5q0 -52 -30.5 -82.5t-81.5 -30.5t-82 30.5t-31 82.5zM569 1044q224 0 359.5 -148.5t138.5 -389.5l-754 2
q0 -145 76 -232.5t201 -87.5q82 0 159 39.5t121 104.5l195 -107q-65 -111 -197.5 -178t-287.5 -67q-230 0 -371 146.5t-141 385.5t138 385.5t363 146.5zM567 844q-88 0 -153.5 -59t-85.5 -156h479q-19 97 -85 156t-155 59z" />
    <glyph glyph-name="igrave" unicode="&#xec;" horiz-adv-x="468" 
d="M285 1163l-297 291l219 35l151 -326h-73zM113 0v1024h245v-1024h-245z" />
    <glyph glyph-name="iacute" unicode="&#xed;" horiz-adv-x="468" 
d="M154 1163l151 326l217 -35l-278 -291h-90zM113 0v1024h245v-1024h-245z" />
    <glyph glyph-name="icircumflex" unicode="&#xee;" horiz-adv-x="468" 
d="M244 1499l340 -350h-187l-153 151l-152 -151h-188zM113 0v1024h245v-1024h-245z" />
    <glyph glyph-name="idieresis" unicode="&#xef;" horiz-adv-x="468" 
d="M-53 1307q0 51 30.5 81.5t81.5 30.5t82 -30.5t31 -81.5q0 -52 -31 -82.5t-82 -30.5t-81.5 30.5t-30.5 82.5zM315 1307q0 51 31 81.5t82 30.5t82 -30.5t31 -81.5q0 -52 -31 -82.5t-82 -30.5t-82 30.5t-31 82.5zM113 0v1024h245v-1024h-245z" />
    <glyph glyph-name="eth" unicode="&#xf0;" horiz-adv-x="1032" 
d="M66 463q0 214 106.5 346.5t273.5 132.5q79 0 151 -30.5t110 -80.5q-36 194 -162 320l-187 -123l-67 100l155 103q-112 67 -256 90l86 164q198 -24 349 -135l123 80l65 -101l-94 -63q117 -123 181.5 -301t64.5 -392q0 -287 -115 -440t-332 -153q-206 0 -329 132.5
t-123 350.5zM317 461q0 -137 55.5 -219t147.5 -82t147.5 82t55.5 219q0 135 -56.5 219t-148.5 84q-90 0 -145.5 -84t-55.5 -219z" />
    <glyph glyph-name="ntilde" unicode="&#xf1;" horiz-adv-x="1142" 
d="M578 1360q35 0 94.5 -26.5t89.5 -26.5q48 0 74 47h75q-8 -63 -49.5 -111.5t-103.5 -48.5q-37 0 -95.5 29t-87.5 26q-47 -6 -71 -53h-90q16 68 60.5 116t103.5 48zM131 0v1024h180l66 -111q71 60 160.5 95.5t177.5 35.5q143 0 230 -94.5t87 -249.5v-700h-246l-2 561
q0 117 -52 187.5t-138 70.5q-58 0 -117 -29.5t-100 -80.5v-709h-246z" />
    <glyph glyph-name="ograve" unicode="&#xf2;" horiz-adv-x="1167" 
d="M631 1163l-295 291l217 35l152 -326h-74zM68 512q0 239 142 385.5t374 146.5q231 0 373.5 -146.5t142.5 -385.5t-142 -385.5t-374 -146.5t-374 146.5t-142 385.5zM313 512q0 -146 74.5 -235t196.5 -89t196 89t74 235t-74.5 236t-195.5 90q-122 0 -196.5 -90t-74.5 -236z
" />
    <glyph glyph-name="oacute" unicode="&#xf3;" horiz-adv-x="1167" 
d="M500 1163l153 326l217 -35l-280 -291h-90zM68 512q0 239 142 385.5t374 146.5q231 0 373.5 -146.5t142.5 -385.5t-142 -385.5t-374 -146.5t-374 146.5t-142 385.5zM313 512q0 -146 74.5 -235t196.5 -89t196 89t74 235t-74.5 236t-195.5 90q-122 0 -196.5 -90t-74.5 -236z
" />
    <glyph glyph-name="ocircumflex" unicode="&#xf4;" horiz-adv-x="1167" 
d="M584 1499l340 -350h-189l-151 151l-152 -151h-188zM68 512q0 239 142 385.5t374 146.5q231 0 373.5 -146.5t142.5 -385.5t-142 -385.5t-374 -146.5t-374 146.5t-142 385.5zM313 512q0 -146 74.5 -235t196.5 -89t196 89t74 235t-74.5 236t-195.5 90q-122 0 -196.5 -90
t-74.5 -236z" />
    <glyph glyph-name="otilde" unicode="&#xf5;" horiz-adv-x="1167" 
d="M498 1360q35 0 94.5 -26.5t89.5 -26.5q50 0 76 47h73q-8 -63 -49 -111.5t-102 -48.5q-39 0 -97 29t-87 26q-48 -6 -72 -53h-90q19 69 62.5 116.5t101.5 47.5zM68 512q0 239 142 385.5t374 146.5q231 0 373.5 -146.5t142.5 -385.5t-142 -385.5t-374 -146.5t-374 146.5
t-142 385.5zM313 512q0 -146 74.5 -235t196.5 -89t196 89t74 235t-74.5 236t-195.5 90q-122 0 -196.5 -90t-74.5 -236z" />
    <glyph glyph-name="odieresis" unicode="&#xf6;" horiz-adv-x="1167" 
d="M287 1307q0 51 30.5 81.5t81.5 30.5t82 -30.5t31 -81.5q0 -52 -31 -82.5t-82 -30.5t-81.5 30.5t-30.5 82.5zM655 1307q0 51 31 81.5t82 30.5t82 -30.5t31 -81.5q0 -52 -31 -82.5t-82 -30.5t-82 30.5t-31 82.5zM68 512q0 239 142 385.5t374 146.5q231 0 373.5 -146.5
t142.5 -385.5t-142 -385.5t-374 -146.5t-374 146.5t-142 385.5zM313 512q0 -146 74.5 -235t196.5 -89t196 89t74 235t-74.5 236t-195.5 90q-122 0 -196.5 -90t-74.5 -236z" />
    <glyph glyph-name="divide" unicode="&#xf7;" horiz-adv-x="882" 
d="M334 969q0 49 29 78.5t79 29.5q48 0 77.5 -29.5t29.5 -78.5q0 -46 -30 -76.5t-77 -30.5q-49 0 -78.5 30t-29.5 77zM92 592v135h696v-135h-696zM334 348q0 50 29.5 79.5t78.5 29.5q48 0 77.5 -30t29.5 -79q0 -46 -30 -75t-77 -29q-49 0 -78.5 29t-29.5 75z" />
    <glyph glyph-name="oslash" unicode="&#xf8;" horiz-adv-x="1167" 
d="M375 -238h-146l111 271q-129 62 -200.5 187t-71.5 292q0 239 142 385.5t374 146.5q81 0 161 -22l95 231l145 2l-117 -286q109 -67 170.5 -185.5t61.5 -271.5q0 -239 -142 -385.5t-374 -146.5q-53 0 -115 10zM313 512q0 -186 113 -272l238 585q-41 13 -80 13
q-122 0 -196.5 -90t-74.5 -236zM778 750l-227 -560q10 -2 33 -2q122 0 196 89t74 235t-76 238z" />
    <glyph glyph-name="ugrave" unicode="&#xf9;" horiz-adv-x="1122" 
d="M647 1163l-297 291l217 35l154 -326h-74zM1010 1024v-1024h-181l-63 111q-69 -60 -157.5 -95.5t-170.5 -35.5q-148 0 -237.5 115.5t-89.5 305.5v623h245v-561q0 -117 53 -187.5t140 -70.5q57 0 116.5 30t98.5 80v709h246z" />
    <glyph glyph-name="uacute" unicode="&#xfa;" horiz-adv-x="1122" 
d="M477 1163l154 326l217 -35l-281 -291h-90zM1010 1024v-1024h-181l-63 111q-69 -60 -157.5 -95.5t-170.5 -35.5q-148 0 -237.5 115.5t-89.5 305.5v623h245v-561q0 -117 53 -187.5t140 -70.5q57 0 116.5 30t98.5 80v709h246z" />
    <glyph glyph-name="ucircumflex" unicode="&#xfb;" horiz-adv-x="1122" 
d="M596 1499l342 -350h-188l-152 151l-154 -151h-188zM1010 1024v-1024h-181l-63 111q-69 -60 -157.5 -95.5t-170.5 -35.5q-148 0 -237.5 115.5t-89.5 305.5v623h245v-561q0 -117 53 -187.5t140 -70.5q57 0 116.5 30t98.5 80v709h246z" />
    <glyph glyph-name="udieresis" unicode="&#xfc;" horiz-adv-x="1122" 
d="M293 1307q0 51 30.5 81.5t82.5 30.5q51 0 81.5 -30.5t30.5 -81.5q0 -52 -30.5 -82.5t-81.5 -30.5q-52 0 -82.5 30t-30.5 83zM662 1307q0 51 30 81.5t82 30.5q51 0 82 -30.5t31 -81.5q0 -52 -31 -82.5t-82 -30.5q-52 0 -82 30t-30 83zM1010 1024v-1024h-181l-63 111
q-69 -60 -157.5 -95.5t-170.5 -35.5q-148 0 -237.5 115.5t-89.5 305.5v623h245v-561q0 -117 53 -187.5t140 -70.5q57 0 116.5 30t98.5 80v709h246z" />
    <glyph glyph-name="yacute" unicode="&#xfd;" horiz-adv-x="1069" 
d="M424 1163l154 326l217 -35l-281 -291h-90zM535 270l262 754h243l-419 -1137q-61 -165 -190 -278t-279 -133l-54 192q60 10 110.5 40t88.5 75.5t65.5 95t51.5 111.5l-398 1034h244z" />
    <glyph glyph-name="thorn" unicode="&#xfe;" horiz-adv-x="1189" 
d="M131 -512v2048h258v-492h117q282 0 453 -146t171 -386t-171.5 -386.5t-452.5 -145.5h-117v-492h-258zM389 215h117q158 0 254 81.5t96 215.5q0 133 -96 214t-254 81h-117v-592z" />
    <glyph glyph-name="ydieresis" unicode="&#xff;" horiz-adv-x="1069" 
d="M246 1307q0 51 30.5 81.5t81.5 30.5t82 -30.5t31 -81.5q0 -52 -31 -82.5t-82 -30.5t-81.5 30.5t-30.5 82.5zM614 1307q0 51 31 81.5t82 30.5t82 -30.5t31 -81.5q0 -52 -31 -82.5t-82 -30.5t-82 30.5t-31 82.5zM535 270l262 754h243l-419 -1137q-61 -165 -190 -278
t-279 -133l-54 192q60 10 110.5 40t88.5 75.5t65.5 95t51.5 111.5l-398 1034h244z" />
    <glyph glyph-name="Amacron" unicode="&#x100;" horiz-adv-x="1339" 
d="M414 1575v111h512v-111h-512zM567 1434h205l537 -1434h-269l-104 279h-528l-109 -279h-270zM668 995l-185 -499h373z" />
    <glyph glyph-name="amacron" unicode="&#x101;" horiz-adv-x="999" 
d="M268 1165v111h512v-111h-512zM502 1044q171 0 278 -101t107 -265v-678h-180l-58 94q-55 -52 -142 -83t-175 -31q-128 0 -206.5 66t-78.5 179q-1 108 72.5 202t211.5 153.5t310 64.5v27q0 80 -49.5 127t-132.5 47q-74 0 -154.5 -37t-140.5 -98l-62 180q74 70 182.5 111.5
t217.5 41.5zM289 291q-6 -52 24 -81.5t86 -29.5q54 0 121.5 28.5t120.5 72.5v213q-148 -6 -245.5 -62.5t-106.5 -140.5z" />
    <glyph glyph-name="Abreve" unicode="&#x102;" horiz-adv-x="1339" 
d="M866 1892h109q-3 -140 -86.5 -224.5t-218.5 -84.5q-136 0 -219 84t-86 223h108q11 -80 63.5 -129t131.5 -49q81 0 134 49t64 131zM567 1434h205l537 -1434h-269l-104 279h-528l-109 -279h-270zM668 995l-185 -499h373z" />
    <glyph glyph-name="abreve" unicode="&#x103;" horiz-adv-x="999" 
d="M717 1483h108q-3 -140 -87 -224.5t-220 -84.5q-134 0 -217 84t-88 223h109q11 -80 64 -129t132 -49q80 0 134.5 49t64.5 131zM502 1044q171 0 278 -101t107 -265v-678h-180l-58 94q-55 -52 -142 -83t-175 -31q-128 0 -206.5 66t-78.5 179q-1 108 72.5 202t211.5 153.5
t310 64.5v27q0 80 -49.5 127t-132.5 47q-74 0 -154.5 -37t-140.5 -98l-62 180q74 70 182.5 111.5t217.5 41.5zM289 291q-6 -52 24 -81.5t86 -29.5q54 0 121.5 28.5t120.5 72.5v213q-148 -6 -245.5 -62.5t-106.5 -140.5z" />
    <glyph glyph-name="Aogonek" unicode="&#x104;" horiz-adv-x="1339" 
d="M567 1434h205l537 -1434h-217q-92 -63 -146 -135.5t-51 -134.5q1 -46 31 -72.5t80 -26.5q79 0 163 66l72 -59q-43 -55 -117.5 -88t-156.5 -33q-104 0 -162 50.5t-47 129.5q10 78 87 164t191 149l-100 269h-528l-109 -279h-270zM668 995l-185 -499h373z" />
    <glyph glyph-name="aogonek" unicode="&#x105;" horiz-adv-x="999" 
d="M502 1044q171 0 278 -101t107 -265v-678h-113q-91 -63 -144 -135.5t-50 -134.5q2 -46 31.5 -72.5t78.5 -26.5q78 0 162 66l74 -59q-43 -55 -118 -88t-157 -33q-104 0 -162 50.5t-47 129.5q10 74 83.5 157.5t181.5 147.5l-58 92q-55 -52 -142 -83t-175 -31
q-128 0 -206.5 66t-78.5 179q-1 108 72.5 202t211.5 153.5t310 64.5v27q0 80 -49.5 127t-132.5 47q-74 0 -154.5 -37t-140.5 -98l-62 180q74 70 182.5 111.5t217.5 41.5zM289 291q-6 -52 24 -81.5t86 -29.5q54 0 121.5 28.5t120.5 72.5v213q-148 -6 -245.5 -62.5
t-106.5 -140.5z" />
    <glyph glyph-name="Cacute" unicode="&#x106;" horiz-adv-x="1361" 
d="M637 1573l154 325l217 -34l-281 -291h-90zM1053 346l252 -96q-80 -124 -217.5 -197t-296.5 -73q-321 0 -518 203t-197 534t197 534t518 203q159 0 296.5 -72.5t217.5 -197.5l-252 -97q-46 61 -121.5 96.5t-163.5 35.5q-189 0 -306.5 -138.5t-117.5 -363.5t117.5 -363.5
t306.5 -138.5q88 0 163.5 35t121.5 96z" />
    <glyph glyph-name="cacute" unicode="&#x107;" horiz-adv-x="1032" 
d="M479 1163l152 326l217 -35l-279 -291h-90zM598 1044q127 0 240 -45t178 -120l-203 -123q-33 37 -88 59.5t-119 22.5q-127 0 -210 -90.5t-83 -235.5t83 -234.5t210 -89.5q61 0 117 21.5t90 58.5l203 -123q-65 -76 -177.5 -120.5t-240.5 -44.5q-232 0 -381 147.5
t-149 384.5t149 384.5t381 147.5z" />
    <glyph glyph-name="Ccircumflex" unicode="&#x108;" horiz-adv-x="1361" 
d="M754 1909l340 -350h-187l-151 151l-154 -151h-188zM1053 346l252 -96q-80 -124 -217.5 -197t-296.5 -73q-321 0 -518 203t-197 534t197 534t518 203q159 0 296.5 -72.5t217.5 -197.5l-252 -97q-46 61 -121.5 96.5t-163.5 35.5q-189 0 -306.5 -138.5t-117.5 -363.5
t117.5 -363.5t306.5 -138.5q88 0 163.5 35t121.5 96z" />
    <glyph glyph-name="ccircumflex" unicode="&#x109;" horiz-adv-x="1032" 
d="M590 1499l342 -350h-189l-151 151l-154 -151h-188zM598 1044q127 0 240 -45t178 -120l-203 -123q-33 37 -88 59.5t-119 22.5q-127 0 -210 -90.5t-83 -235.5t83 -234.5t210 -89.5q61 0 117 21.5t90 58.5l203 -123q-65 -76 -177.5 -120.5t-240.5 -44.5q-232 0 -381 147.5
t-149 384.5t149 384.5t381 147.5z" />
    <glyph glyph-name="Cdotaccent" unicode="&#x10a;" horiz-adv-x="1361" 
d="M641 1710q0 51 30.5 82t82.5 31q51 0 81.5 -31t30.5 -82q0 -52 -30.5 -82.5t-81.5 -30.5q-52 0 -82.5 30.5t-30.5 82.5zM1053 346l252 -96q-80 -124 -217.5 -197t-296.5 -73q-321 0 -518 203t-197 534t197 534t518 203q159 0 296.5 -72.5t217.5 -197.5l-252 -97
q-46 61 -121.5 96.5t-163.5 35.5q-189 0 -306.5 -138.5t-117.5 -363.5t117.5 -363.5t306.5 -138.5q88 0 163.5 35t121.5 96z" />
    <glyph glyph-name="cdotaccent" unicode="&#x10b;" horiz-adv-x="1032" 
d="M477 1300q0 51 31 82t82 31t81.5 -31t30.5 -82q0 -52 -30.5 -82t-81.5 -30t-82 30t-31 82zM598 1044q127 0 240 -45t178 -120l-203 -123q-33 37 -88 59.5t-119 22.5q-127 0 -210 -90.5t-83 -235.5t83 -234.5t210 -89.5q61 0 117 21.5t90 58.5l203 -123
q-65 -76 -177.5 -120.5t-240.5 -44.5q-232 0 -381 147.5t-149 384.5t149 384.5t381 147.5z" />
    <glyph glyph-name="Ccaron" unicode="&#x10c;" horiz-adv-x="1361" 
d="M414 1909h196l144 -152l143 152h197l-340 -350zM1053 346l252 -96q-80 -124 -217.5 -197t-296.5 -73q-321 0 -518 203t-197 534t197 534t518 203q159 0 296.5 -72.5t217.5 -197.5l-252 -97q-46 61 -121.5 96.5t-163.5 35.5q-189 0 -306.5 -138.5t-117.5 -363.5
t117.5 -363.5t306.5 -138.5q88 0 163.5 35t121.5 96z" />
    <glyph glyph-name="ccaron" unicode="&#x10d;" horiz-adv-x="1032" 
d="M264 1499h197l145 -151l144 151h196l-342 -350zM598 1044q127 0 240 -45t178 -120l-203 -123q-33 37 -88 59.5t-119 22.5q-127 0 -210 -90.5t-83 -235.5t83 -234.5t210 -89.5q61 0 117 21.5t90 58.5l203 -123q-65 -76 -177.5 -120.5t-240.5 -44.5q-232 0 -381 147.5
t-149 384.5t149 384.5t381 147.5z" />
    <glyph glyph-name="Dcaron" unicode="&#x10e;" horiz-adv-x="1361" 
d="M309 1909h199l143 -152l144 152h196l-340 -350zM168 0v1434h469q292 0 470.5 -197.5t178.5 -519.5t-178.5 -519.5t-470.5 -197.5h-469zM426 236h211q171 0 276 132.5t105 348.5t-105 348.5t-276 132.5h-211v-962z" />
    <glyph glyph-name="dcaron" unicode="&#x10f;" horiz-adv-x="1259" 
d="M1108 1507l188 41q91 -97 88 -225q-6 -161 -186 -289h-90q61 43 98 105.5t37 122.5t-34.5 118t-100.5 127zM57 508q0 240 113 388t293 148q78 0 153 -29.5t121 -76.5v598h246v-1536h-180l-66 86q-43 -47 -118 -76.5t-154 -29.5q-181 0 -294.5 145.5t-113.5 382.5z
M301 508q0 -143 68 -232.5t172 -89.5q64 0 116.5 34.5t79.5 92.5v396q-25 57 -77.5 91t-116.5 34q-104 0 -173 -90t-69 -236z" />
    <glyph glyph-name="Dcroat" unicode="&#x110;" horiz-adv-x="1361" 
d="M16 582v217h152v635h469q292 0 470.5 -197.5t178.5 -519.5t-178.5 -519.5t-470.5 -197.5h-469v582h-152zM426 236h211q171 0 276 132.5t105 348.5t-105 348.5t-276 132.5h-211v-399h268v-217h-268v-346z" />
    <glyph glyph-name="dcroat" unicode="&#x111;" horiz-adv-x="1116" 
d="M1204 1196h-221v-1196h-180l-66 86q-43 -47 -118 -76.5t-154 -29.5q-181 0 -294.5 145.5t-113.5 382.5q0 240 113 388t293 148q78 0 153 -29.5t121 -76.5v258h-227v141h227v199h246v-199h221v-141zM301 508q0 -143 68 -232.5t172 -89.5q64 0 116.5 34.5t79.5 92.5v396
q-25 57 -77.5 91t-116.5 34q-104 0 -173 -90t-69 -236z" />
    <glyph glyph-name="Emacron" unicode="&#x112;" horiz-adv-x="1140" 
d="M373 1575v111h512v-111h-512zM168 0v1434h899v-236h-641v-403l545 2v-232h-545v-329h641v-236h-899z" />
    <glyph glyph-name="emacron" unicode="&#x113;" horiz-adv-x="1114" 
d="M317 1165v111h512v-111h-512zM569 1044q224 0 359.5 -148.5t138.5 -389.5l-754 2q0 -145 76 -232.5t201 -87.5q82 0 159 39.5t121 104.5l195 -107q-65 -111 -197.5 -178t-287.5 -67q-230 0 -371 146.5t-141 385.5t138 385.5t363 146.5zM567 844q-88 0 -153.5 -59
t-85.5 -156h479q-19 97 -85 156t-155 59z" />
    <glyph glyph-name="Ebreve" unicode="&#x114;" horiz-adv-x="1140" 
d="M815 1892h109q-3 -140 -86.5 -224.5t-219.5 -84.5t-219 84t-86 223h109q11 -80 63 -129t131 -49q81 0 134.5 49t64.5 131zM168 0v1434h899v-236h-641v-403l545 2v-232h-545v-329h641v-236h-899z" />
    <glyph glyph-name="ebreve" unicode="&#x115;" horiz-adv-x="1114" 
d="M782 1483h109q-3 -140 -87 -224.5t-220 -84.5q-135 0 -218.5 84.5t-86.5 222.5h108q11 -80 64.5 -129t132.5 -49t133 49t65 131zM569 1044q224 0 359.5 -148.5t138.5 -389.5l-754 2q0 -145 76 -232.5t201 -87.5q82 0 159 39.5t121 104.5l195 -107q-65 -111 -197.5 -178
t-287.5 -67q-230 0 -371 146.5t-141 385.5t138 385.5t363 146.5zM567 844q-88 0 -153.5 -59t-85.5 -156h479q-19 97 -85 156t-155 59z" />
    <glyph glyph-name="Edotaccent" unicode="&#x116;" horiz-adv-x="1140" 
d="M506 1710q0 51 30.5 82t81.5 31t82 -31t31 -82q0 -52 -31 -82.5t-82 -30.5t-81.5 30.5t-30.5 82.5zM168 0v1434h899v-236h-641v-403l545 2v-232h-545v-329h641v-236h-899z" />
    <glyph glyph-name="edotaccent" unicode="&#x117;" horiz-adv-x="1114" 
d="M500 1300q0 51 30.5 82t81.5 31t82 -31t31 -82q0 -52 -31 -82t-82 -30t-81.5 30t-30.5 82zM569 1044q224 0 359.5 -148.5t138.5 -389.5l-754 2q0 -145 76 -232.5t201 -87.5q82 0 159 39.5t121 104.5l195 -107q-65 -111 -197.5 -178t-287.5 -67q-230 0 -371 146.5
t-141 385.5t138 385.5t363 146.5zM567 844q-88 0 -153.5 -59t-85.5 -156h479q-19 97 -85 156t-155 59z" />
    <glyph glyph-name="Eogonek" unicode="&#x118;" horiz-adv-x="1140" 
d="M168 0v1434h899v-236h-641v-403l545 2v-232h-545v-329h641v-236h-254q-92 -62 -145 -135t-52 -135q1 -46 31 -72.5t80 -26.5q80 0 164 66l72 -59q-43 -55 -118 -88t-157 -33q-102 0 -161 51t-48 129q10 75 82.5 158t179.5 145h-573z" />
    <glyph glyph-name="eogonek" unicode="&#x119;" horiz-adv-x="1114" 
d="M569 1044q224 0 359.5 -148.5t138.5 -389.5l-754 2q0 -145 76 -232.5t201 -87.5q82 0 159 39.5t121 104.5l195 -107q-43 -72 -116 -127t-165 -84q-100 -64 -159 -141t-56 -143q1 -46 31 -72.5t80 -26.5q82 0 162 66l73 -59q-43 -55 -117.5 -88t-156.5 -33
q-104 0 -162 50.5t-47 129.5q9 70 75 148.5t165 140.5q-46 -6 -92 -6q-230 0 -371 146.5t-141 385.5t138 385.5t363 146.5zM567 844q-88 0 -153.5 -59t-85.5 -156h479q-19 97 -85 156t-155 59z" />
    <glyph glyph-name="Ecaron" unicode="&#x11a;" horiz-adv-x="1140" 
d="M299 1909h197l143 -152l143 152h197l-340 -350zM168 0v1434h899v-236h-641v-403l545 2v-232h-545v-329h641v-236h-899z" />
    <glyph glyph-name="ecaron" unicode="&#x11b;" horiz-adv-x="1114" 
d="M244 1499h196l144 -151l143 151h197l-340 -350zM569 1044q224 0 359.5 -148.5t138.5 -389.5l-754 2q0 -145 76 -232.5t201 -87.5q82 0 159 39.5t121 104.5l195 -107q-65 -111 -197.5 -178t-287.5 -67q-230 0 -371 146.5t-141 385.5t138 385.5t363 146.5zM567 844
q-88 0 -153.5 -59t-85.5 -156h479q-19 97 -85 156t-155 59z" />
    <glyph glyph-name="Gcircumflex" unicode="&#x11c;" horiz-adv-x="1431" 
d="M739 1909l340 -350h-186l-154 151l-151 -151h-189zM741 530v236l584 -2v-496q-74 -132 -224.5 -210t-336.5 -78q-199 0 -355.5 91.5t-244.5 259.5t-88 386q0 331 197 534t518 203q159 0 296.5 -73t217.5 -197l-252 -97q-46 61 -121.5 96.5t-163.5 35.5
q-191 0 -307.5 -138t-116.5 -364q0 -225 116 -363.5t300 -138.5q93 0 176 36t129 95v182z" />
    <glyph glyph-name="gcircumflex" unicode="&#x11d;" horiz-adv-x="1030" 
d="M512 1516l299 -326h-164l-133 139l-133 -139h-166zM502 1047q92 0 168 -31l164 182l147 -68l-176 -194q106 -106 106 -277q0 -175 -112.5 -282t-296.5 -107q-36 0 -70 6q-32 -17 -53.5 -36t-26.5 -33q-9 -23 12.5 -36t67.5 -13l156 2q171 1 277 -85.5t106 -226.5
q0 -145 -119.5 -232t-345.5 -87q-205 0 -332 69.5t-127 178.5q0 63 45 113t119 75q-72 20 -104 72t-13 115q14 52 63.5 97.5t125.5 72.5q-91 48 -141 135t-50 202q0 174 113 281t297 107zM502 872q-85 0 -137 -59t-52 -154q0 -96 52 -154.5t137 -58.5t136.5 58t51.5 155
q0 95 -51.5 154t-136.5 59zM365 -45q-80 -60 -80 -131q0 -56 56 -91.5t148 -35.5h60q90 0 146.5 36t56.5 95q0 57 -52 92t-137 35h-198z" />
    <glyph glyph-name="Gbreve" unicode="&#x11e;" horiz-adv-x="1431" 
d="M897 1892h109q-3 -140 -86.5 -224.5t-219.5 -84.5t-219 84t-86 223h109q11 -81 63 -129.5t133 -48.5q79 0 132.5 49t64.5 131zM741 530v236l584 -2v-496q-74 -132 -224.5 -210t-336.5 -78q-199 0 -355.5 91.5t-244.5 259.5t-88 386q0 331 197 534t518 203
q159 0 296.5 -73t217.5 -197l-252 -97q-46 61 -121.5 96.5t-163.5 35.5q-191 0 -307.5 -138t-116.5 -364q0 -225 116 -363.5t300 -138.5q93 0 176 36t129 95v182z" />
    <glyph glyph-name="gbreve" unicode="&#x11f;" horiz-adv-x="1030" 
d="M705 1483h108q-3 -140 -86 -224.5t-219 -84.5t-219 84t-86 223h108q11 -80 63.5 -129t131.5 -49q81 0 134.5 49t64.5 131zM502 1047q92 0 168 -31l164 182l147 -68l-176 -194q106 -106 106 -277q0 -175 -112.5 -282t-296.5 -107q-36 0 -70 6q-32 -17 -53.5 -36t-26.5 -33
q-9 -23 12.5 -36t67.5 -13l156 2q171 1 277 -85.5t106 -226.5q0 -145 -119.5 -232t-345.5 -87q-205 0 -332 69.5t-127 178.5q0 63 45 113t119 75q-72 20 -104 72t-13 115q14 52 63.5 97.5t125.5 72.5q-91 48 -141 135t-50 202q0 174 113 281t297 107zM502 872
q-85 0 -137 -59t-52 -154q0 -96 52 -154.5t137 -58.5t136.5 58t51.5 155q0 95 -51.5 154t-136.5 59zM365 -45q-80 -60 -80 -131q0 -56 56 -91.5t148 -35.5h60q90 0 146.5 36t56.5 95q0 57 -52 92t-137 35h-198z" />
    <glyph glyph-name="Gdotaccent" unicode="&#x120;" horiz-adv-x="1431" 
d="M631 1710q0 51 30.5 82t81.5 31t82 -31t31 -82q0 -52 -31 -82.5t-82 -30.5t-81.5 30.5t-30.5 82.5zM741 530v236l584 -2v-496q-74 -132 -224.5 -210t-336.5 -78q-199 0 -355.5 91.5t-244.5 259.5t-88 386q0 331 197 534t518 203q159 0 296.5 -73t217.5 -197l-252 -97
q-46 61 -121.5 96.5t-163.5 35.5q-191 0 -307.5 -138t-116.5 -364q0 -225 116 -363.5t300 -138.5q93 0 176 36t129 95v182z" />
    <glyph glyph-name="gdotaccent" unicode="&#x121;" horiz-adv-x="1030" 
d="M410 1300q0 51 30 82t82 31q51 0 82 -31t31 -82q0 -52 -31 -82t-82 -30q-52 0 -82 30t-30 82zM502 1047q92 0 168 -31l164 182l147 -68l-176 -194q106 -106 106 -277q0 -175 -112.5 -282t-296.5 -107q-36 0 -70 6q-32 -17 -53.5 -36t-26.5 -33q-9 -23 12.5 -36t67.5 -13
l156 2q171 1 277 -85.5t106 -226.5q0 -145 -119.5 -232t-345.5 -87q-205 0 -332 69.5t-127 178.5q0 63 45 113t119 75q-72 20 -104 72t-13 115q14 52 63.5 97.5t125.5 72.5q-91 48 -141 135t-50 202q0 174 113 281t297 107zM502 872q-85 0 -137 -59t-52 -154
q0 -96 52 -154.5t137 -58.5t136.5 58t51.5 155q0 95 -51.5 154t-136.5 59zM365 -45q-80 -60 -80 -131q0 -56 56 -91.5t148 -35.5h60q90 0 146.5 36t56.5 95q0 57 -52 92t-137 35h-198z" />
    <glyph glyph-name="uni0122" unicode="&#x122;" horiz-adv-x="1431" 
d="M741 530v236l584 -2v-496q-74 -132 -224.5 -210t-336.5 -78q-199 0 -355.5 91.5t-244.5 259.5t-88 386q0 331 197 534t518 203q159 0 296.5 -73t217.5 -197l-252 -97q-46 61 -121.5 96.5t-163.5 35.5q-191 0 -307.5 -138t-116.5 -364q0 -225 116 -363.5t300 -138.5
q93 0 176 36t129 95v182zM676 -53l184 -51q36 -127 -29 -238q-77 -136 -294 -166l-78 43q73 9 133 46t88 91q49 93 -4 275z" />
    <glyph glyph-name="uni0123" unicode="&#x123;" horiz-adv-x="1030" 
d="M649 1227l-188 -49q-96 99 -96 221q0 159 172 297l90 2q-59 -44 -92.5 -108.5t-30.5 -125.5q3 -59 40 -115.5t105 -121.5zM502 1047q92 0 168 -31l164 182l147 -68l-176 -194q106 -106 106 -277q0 -175 -112.5 -282t-296.5 -107q-36 0 -70 6q-32 -17 -53.5 -36t-26.5 -33
q-9 -23 12.5 -36t67.5 -13l156 2q171 1 277 -85.5t106 -226.5q0 -145 -119.5 -232t-345.5 -87q-205 0 -332 69.5t-127 178.5q0 63 45 113t119 75q-72 20 -104 72t-13 115q14 52 63.5 97.5t125.5 72.5q-91 48 -141 135t-50 202q0 174 113 281t297 107zM502 872
q-85 0 -137 -59t-52 -154q0 -96 52 -154.5t137 -58.5t136.5 58t51.5 155q0 95 -51.5 154t-136.5 59zM365 -45q-80 -60 -80 -131q0 -56 56 -91.5t148 -35.5h60q90 0 146.5 36t56.5 95q0 57 -52 92t-137 35h-198z" />
    <glyph glyph-name="Hcircumflex" unicode="&#x124;" horiz-adv-x="1419" 
d="M711 1909l340 -350h-187l-151 151l-154 -151h-188zM170 0v1434h258v-639h567v639h258v-1434h-258v559h-567v-559h-258z" />
    <glyph glyph-name="hcircumflex" unicode="&#x125;" horiz-adv-x="1142" 
d="M131 0v1536h246v-610q62 54 145.5 86t165.5 32q155 0 249.5 -115.5t94.5 -305.5v-623h-246l-2 561q0 118 -51.5 188t-138.5 70q-58 0 -117 -29.5t-100 -80.5v-709h-246zM731 1499l301 -350h-166l-135 151l-133 -151h-168z" />
    <glyph glyph-name="Hbar" unicode="&#x126;" horiz-adv-x="1419" 
d="M55 1008v122h115v304h258v-304h567v304h258v-304h113v-122h-113v-1008h-258v559h-567v-559h-258v1008h-115zM428 795h567v213h-567v-213z" />
    <glyph glyph-name="hbar" unicode="&#x127;" horiz-adv-x="1142" 
d="M131 0v1227h-106v110h106v199h246v-199h381v-110h-381v-301q62 54 145.5 86t165.5 32q155 0 249.5 -115.5t94.5 -305.5v-623h-246l-2 561q0 118 -51.5 188t-138.5 70q-58 0 -117 -29.5t-100 -80.5v-709h-246z" />
    <glyph glyph-name="Itilde" unicode="&#x128;" horiz-adv-x="593" 
d="M221 1769q35 0 95 -26.5t90 -26.5q50 0 73 47h76q-8 -62 -49.5 -110.5t-102.5 -48.5q-39 0 -97 29t-87 26q-48 -6 -72 -53h-90q19 69 62.5 116t101.5 47zM170 0v1434h258v-1434h-258z" />
    <glyph glyph-name="itilde" unicode="&#x129;" horiz-adv-x="468" 
d="M158 1360q35 0 94.5 -26.5t89.5 -26.5q50 0 76 47h74q-8 -62 -49.5 -111t-102.5 -49q-39 0 -97 29t-87 26q-48 -6 -72 -53h-90q19 69 62.5 116.5t101.5 47.5zM113 0v1024h245v-1024h-245z" />
    <glyph glyph-name="Imacron" unicode="&#x12a;" horiz-adv-x="593" 
d="M43 1575v111h512v-111h-512zM170 0v1434h258v-1434h-258z" />
    <glyph glyph-name="imacron" unicode="&#x12b;" horiz-adv-x="468" 
d="M-23 1165v111h515v-111h-515zM113 0v1024h245v-1024h-245z" />
    <glyph glyph-name="Iogonek" unicode="&#x12e;" horiz-adv-x="593" 
d="M170 0v1434h258v-1434h-149q-92 -62 -145 -135t-52 -135q2 -46 32 -72.5t81 -26.5q77 0 161 66l72 -59q-41 -54 -116 -87.5t-156 -33.5q-103 0 -161.5 50.5t-49.5 129.5q10 75 82.5 158t179.5 145h-37z" />
    <glyph glyph-name="iogonek" unicode="&#x12f;" horiz-adv-x="522" 
d="M113 1407q0 67 40.5 108t108.5 41q66 0 108 -41t42 -108q0 -69 -42 -110.5t-108 -41.5q-68 0 -108.5 41.5t-40.5 110.5zM139 0v1024h246v-1024h-115q-91 -62 -144 -134.5t-52 -135.5q2 -46 31.5 -72.5t78.5 -26.5q80 0 164 66l72 -59q-43 -55 -118 -88t-157 -33
q-103 0 -161 50.5t-47 129.5q10 75 82.5 158t179.5 145h-60z" />
    <glyph glyph-name="Idotaccent" unicode="&#x130;" horiz-adv-x="593" 
d="M156 1708q0 65 38.5 104t104.5 39q65 0 104 -39.5t39 -103.5t-39 -103.5t-104 -39.5q-66 0 -104.5 39t-38.5 104zM170 0v1434h258v-1434h-258z" />
    <glyph glyph-name="dotlessi" unicode="&#x131;" horiz-adv-x="509" 
d="M131 0v1024h246v-1024h-246z" />
    <glyph glyph-name="IJ" unicode="&#x132;" horiz-adv-x="1126" 
d="M170 0v1434h258v-1434h-258zM700 188v1246h258v-1305q0 -205 -137 -380t-362 -257l-74 215q162 100 238.5 216.5t76.5 264.5z" />
    <glyph glyph-name="ij" unicode="&#x133;" horiz-adv-x="1038" 
d="M113 1407q0 67 40.5 108t108.5 41q66 0 108 -41t42 -108q0 -69 -42 -110.5t-108 -41.5q-68 0 -108.5 41.5t-40.5 110.5zM633 1407q0 68 39.5 108.5t105.5 40.5t107 -41t41 -108q0 -69 -41 -110.5t-107 -41.5t-105.5 41.5t-39.5 110.5zM139 0v1024h246v-1024h-246z
M899 1024v-1165q0 -177 -92 -284t-244 -107q-74 0 -153 24.5t-136 65.5l91 190q76 -59 151 -59q63 0 101 57.5t38 151.5v1126h244z" />
    <glyph glyph-name="Jcircumflex" unicode="&#x134;" horiz-adv-x="694" 
d="M403 1909l342 -350h-188l-151 151l-154 -151h-189zM270 188v1246h258v-1305q0 -204 -137.5 -379.5t-361.5 -257.5l-74 215q162 100 238.5 217t76.5 264z" />
    <glyph glyph-name="jcircumflex" unicode="&#x135;" horiz-adv-x="546" 
d="M317 1499l340 -350h-186l-154 151l-151 -151h-189zM434 1024v-1165q0 -177 -89.5 -284t-238.5 -107q-72 0 -153.5 24.5t-145.5 65.5l93 190q76 -59 149 -59q64 0 102.5 57.5t36.5 151.5v1126h246z" />
    <glyph glyph-name="uni0136" unicode="&#x136;" horiz-adv-x="1212" 
d="M170 1434h258v-785l467 785h276l-436 -732q183 -57 310 -249.5t155 -452.5h-285q-22 226 -155.5 399.5t-331.5 235.5v-635h-258v1434zM621 -53l184 -51q32 -129 -29 -238q-77 -136 -297 -166l-78 43q74 9 134.5 46t89.5 91q49 93 -4 275z" />
    <glyph glyph-name="uni0137" unicode="&#x137;" horiz-adv-x="1064" 
d="M131 1434h246v-889l356 479h254l-346 -461q138 -50 238.5 -204.5t126.5 -358.5h-254q-22 168 -123.5 300.5t-251.5 188.5v-489h-246v1434zM535 -53l182 -51q36 -127 -29 -238q-77 -136 -295 -166l-78 43q74 9 134 46t88 91q48 91 -2 275z" />
    <glyph glyph-name="kgreenlandic" unicode="&#x138;" horiz-adv-x="1064" 
d="M131 1024h246v-479l356 479h254l-346 -461q138 -50 238.5 -204.5t126.5 -358.5h-254q-22 168 -123.5 300.5t-251.5 188.5v-489h-246v1024z" />
    <glyph glyph-name="Lacute" unicode="&#x139;" horiz-adv-x="1144" 
d="M342 1573l154 325l217 -34l-281 -291h-90zM170 0v1434h258v-1198h696v-236h-954z" />
    <glyph glyph-name="lacute" unicode="&#x13a;" horiz-adv-x="507" 
d="M139 1614l152 325l217 -34l-279 -291h-90zM131 0v1536h246v-1536h-246z" />
    <glyph glyph-name="uni013B" unicode="&#x13b;" horiz-adv-x="1144" 
d="M170 0v1434h258v-1198h696v-236h-954zM571 -53l185 -51q32 -129 -29 -238q-77 -136 -297 -166l-78 43q73 9 133.5 46t89.5 91q49 93 -4 275z" />
    <glyph glyph-name="uni013C" unicode="&#x13c;" horiz-adv-x="507" 
d="M131 0v1536h246v-1536h-246zM176 -53l184 -51q32 -132 -30 -238q-77 -136 -295 -166l-78 43q74 9 133.5 46t87.5 91q51 93 -2 275z" />
    <glyph glyph-name="Lcaron" unicode="&#x13d;" horiz-adv-x="1144" 
d="M618 1405l189 41q91 -101 88 -225q-6 -161 -186 -289h-91q61 43 97.5 105t36.5 122t-34.5 118.5t-99.5 127.5zM170 0v1434h258v-1198h696v-236h-954z" />
    <glyph glyph-name="lcaron" unicode="&#x13e;" horiz-adv-x="606" 
d="M131 0v1536h246v-1536h-246zM469 1493l188 41q91 -101 88 -225q-6 -161 -186 -289h-90q61 42 97 104t36 123q0 60 -34 119t-99 127z" />
    <glyph glyph-name="Ldot" unicode="&#x13f;" horiz-adv-x="1144" 
d="M170 0v1434h258v-1198h696v-236h-954zM662 635q0 57 35.5 93t93.5 36q56 0 90 -35.5t34 -93.5q0 -56 -33.5 -90.5t-90.5 -34.5q-58 0 -93.5 34.5t-35.5 90.5z" />
    <glyph glyph-name="ldot" unicode="&#x140;" horiz-adv-x="692" 
d="M131 0v1536h246v-1536h-246zM451 776q0 57 36 93t93 36t91 -36t34 -93q0 -56 -34 -90.5t-91 -34.5t-93 35t-36 90z" />
    <glyph glyph-name="Lslash" unicode="&#x141;" horiz-adv-x="1144" 
d="M170 0v477l-139 -88l-74 119l213 133v793h258v-631l256 162l74 -117l-330 -209v-403h696v-236h-954z" />
    <glyph glyph-name="lslash" unicode="&#x142;" horiz-adv-x="507" 
d="M131 0v592l-151 -152l-99 99l250 249v748h246v-502l164 164l98 -98l-262 -262v-838h-246z" />
    <glyph glyph-name="Nacute" unicode="&#x143;" horiz-adv-x="1409" 
d="M662 1573l151 325l217 -34l-278 -291h-90zM168 0v1434h217l598 -934v934h258v-1434h-213l-600 934v-934h-260z" />
    <glyph glyph-name="nacute" unicode="&#x144;" horiz-adv-x="1142" 
d="M522 1163l154 326l217 -35l-281 -291h-90zM131 0v1024h180l66 -111q71 60 160.5 95.5t177.5 35.5q143 0 230 -94.5t87 -249.5v-700h-246l-2 561q0 117 -52 187.5t-138 70.5q-58 0 -117 -29.5t-100 -80.5v-709h-246z" />
    <glyph glyph-name="uni0145" unicode="&#x145;" horiz-adv-x="1409" 
d="M168 0v1434h217l598 -934v934h258v-1434h-213l-600 934v-934h-260zM631 -53l184 -51q32 -129 -29 -238q-77 -136 -297 -166l-77 43q73 9 133.5 46t89.5 91q49 93 -4 275z" />
    <glyph glyph-name="uni0146" unicode="&#x146;" horiz-adv-x="1142" 
d="M131 0v1024h180l66 -111q71 60 160.5 95.5t177.5 35.5q143 0 230 -94.5t87 -249.5v-700h-246l-2 561q0 117 -52 187.5t-138 70.5q-58 0 -117 -29.5t-100 -80.5v-709h-246zM563 -53l182 -51q36 -129 -28 -238q-77 -136 -295 -166l-78 43q74 9 133.5 46t87.5 91
q48 91 -2 275z" />
    <glyph glyph-name="Ncaron" unicode="&#x147;" horiz-adv-x="1409" 
d="M379 1909h196l144 -152l143 152h197l-340 -350zM168 0v1434h217l598 -934v934h258v-1434h-213l-600 934v-934h-260z" />
    <glyph glyph-name="ncaron" unicode="&#x148;" horiz-adv-x="1142" 
d="M268 1499h197l145 -151l144 151h196l-342 -350zM131 0v1024h180l66 -111q71 60 160.5 95.5t177.5 35.5q143 0 230 -94.5t87 -249.5v-700h-246l-2 561q0 117 -52 187.5t-138 70.5q-58 0 -117 -29.5t-100 -80.5v-709h-246z" />
    <glyph glyph-name="napostrophe" unicode="&#x149;" horiz-adv-x="1142" 
d="M154 1524l180 35q87 -84 84 -191q-6 -133 -178 -244h-86q59 36 94 89t35 104q0 50 -33 99.5t-96 107.5zM131 0v1024h180l66 -111q71 60 160.5 95.5t177.5 35.5q143 0 230 -94.5t87 -249.5v-700h-246l-2 561q0 117 -52 187.5t-138 70.5q-58 0 -117 -29.5t-100 -80.5v-709
h-246z" />
    <glyph glyph-name="Omacron" unicode="&#x14c;" horiz-adv-x="1527" 
d="M508 1575v111h512v-111h-512zM76 717q0 332 189 534.5t499 202.5q204 0 360 -91.5t241 -259t85 -386.5t-85 -386.5t-241 -259t-360 -91.5q-310 0 -499 202.5t-189 534.5zM340 717q0 -229 116.5 -368.5t307.5 -139.5q190 0 306 139.5t116 368.5t-116 368.5t-306 139.5
q-191 0 -307.5 -139.5t-116.5 -368.5z" />
    <glyph glyph-name="omacron" unicode="&#x14d;" horiz-adv-x="1167" 
d="M328 1165v111h512v-111h-512zM68 512q0 239 142 385.5t374 146.5q231 0 373.5 -146.5t142.5 -385.5t-142 -385.5t-374 -146.5t-374 146.5t-142 385.5zM313 512q0 -146 74.5 -235t196.5 -89t196 89t74 235t-74.5 236t-195.5 90q-122 0 -196.5 -90t-74.5 -236z" />
    <glyph glyph-name="Obreve" unicode="&#x14e;" horiz-adv-x="1527" 
d="M961 1892h108q-3 -140 -86 -224.5t-219 -84.5t-219 84t-86 223h108q11 -80 63.5 -129t131.5 -49q81 0 134.5 49t64.5 131zM76 717q0 332 189 534.5t499 202.5q204 0 360 -91.5t241 -259t85 -386.5t-85 -386.5t-241 -259t-360 -91.5q-310 0 -499 202.5t-189 534.5z
M340 717q0 -229 116.5 -368.5t307.5 -139.5q190 0 306 139.5t116 368.5t-116 368.5t-306 139.5q-191 0 -307.5 -139.5t-116.5 -368.5z" />
    <glyph glyph-name="obreve" unicode="&#x14f;" horiz-adv-x="1167" 
d="M780 1483h109q-3 -140 -86.5 -224.5t-218.5 -84.5q-136 0 -219 84t-86 223h108q11 -80 63.5 -129t131.5 -49q81 0 134 49t64 131zM68 512q0 239 142 385.5t374 146.5q231 0 373.5 -146.5t142.5 -385.5t-142 -385.5t-374 -146.5t-374 146.5t-142 385.5zM313 512
q0 -146 74.5 -235t196.5 -89t196 89t74 235t-74.5 236t-195.5 90q-122 0 -196.5 -90t-74.5 -236z" />
    <glyph glyph-name="Ohungarumlaut" unicode="&#x150;" horiz-adv-x="1527" 
d="M944 1864l-350 -291h-21l150 291h221zM1241 1864l-348 -291h-21l148 291h221zM76 717q0 332 189 534.5t499 202.5q204 0 360 -91.5t241 -259t85 -386.5t-85 -386.5t-241 -259t-360 -91.5q-310 0 -499 202.5t-189 534.5zM340 717q0 -229 116.5 -368.5t307.5 -139.5
q190 0 306 139.5t116 368.5t-116 368.5t-306 139.5q-191 0 -307.5 -139.5t-116.5 -368.5z" />
    <glyph glyph-name="ohungarumlaut" unicode="&#x151;" horiz-adv-x="1167" 
d="M770 1454l-350 -291h-21l150 291h221zM1067 1454l-350 -291h-21l150 291h221zM68 512q0 239 142 385.5t374 146.5q231 0 373.5 -146.5t142.5 -385.5t-142 -385.5t-374 -146.5t-374 146.5t-142 385.5zM313 512q0 -146 74.5 -235t196.5 -89t196 89t74 235t-74.5 236
t-195.5 90q-122 0 -196.5 -90t-74.5 -236z" />
    <glyph glyph-name="OE" unicode="&#x152;" horiz-adv-x="2152" 
d="M76 717q0 332 189 534.5t499 202.5q242 0 418 -131v111h897v-236h-639v-332q1 -12 4 -35t4 -36l537 2v-232h-545v-329h639v-236h-897v111q-176 -131 -418 -131q-310 0 -499 202.5t-189 534.5zM340 717q0 -229 116.5 -368.5t307.5 -139.5q170 0 282.5 113.5t135.5 304.5
v180q-23 191 -135.5 304.5t-282.5 113.5q-191 0 -307.5 -139.5t-116.5 -368.5z" />
    <glyph glyph-name="oe" unicode="&#x153;" horiz-adv-x="1929" 
d="M68 512q0 239 142 385.5t374 146.5q129 0 233 -47.5t172 -136.5q66 88 168 136t227 48q224 0 360 -148.5t138 -389.5l-754 2q0 -145 76 -232.5t201 -87.5q83 0 160 39.5t121 104.5l194 -107q-65 -111 -197.5 -178t-287.5 -67q-130 0 -234 48t-170 136
q-145 -184 -407 -184q-232 0 -374 146.5t-142 385.5zM1382 844q-88 0 -153.5 -59t-85.5 -156h481q-20 97 -86.5 156t-155.5 59zM313 512q0 -146 74.5 -235t196.5 -89t196 89t74 235t-74.5 236t-195.5 90q-122 0 -196.5 -90t-74.5 -236z" />
    <glyph glyph-name="Racute" unicode="&#x154;" horiz-adv-x="1202" 
d="M483 1573l154 325l217 -34l-281 -291h-90zM170 1434h428q242 0 388.5 -130.5t146.5 -347.5q0 -148 -72 -259t-199 -167q120 -40 203 -185t102 -345h-278q-10 180 -102 309.5t-232 163.5h-129l2 -473h-258v1434zM426 709h184q115 0 185.5 67.5t70.5 177.5t-70 177t-186 67
h-184v-489z" />
    <glyph glyph-name="racute" unicode="&#x155;" horiz-adv-x="843" 
d="M246 1163l153 326l217 -35l-280 -291h-90zM872 979l-79 -193q-96 66 -191 66q-70 0 -128.5 -38t-96.5 -103v-711h-246v1022h182l64 -94q45 53 115.5 84.5t146.5 31.5q116 0 233 -65z" />
    <glyph glyph-name="uni0156" unicode="&#x156;" horiz-adv-x="1202" 
d="M170 1434h428q242 0 388.5 -130.5t146.5 -347.5q0 -148 -72 -259t-199 -167q120 -40 203 -185t102 -345h-278q-10 180 -102 309.5t-232 163.5h-129l2 -473h-258v1434zM426 709h184q115 0 185.5 67.5t70.5 177.5t-70 177t-186 67h-184v-489zM584 -53l184 -51
q32 -129 -29 -238q-77 -136 -297 -166l-77 43q73 9 133.5 46t89.5 91q49 93 -4 275z" />
    <glyph glyph-name="uni0157" unicode="&#x157;" horiz-adv-x="843" 
d="M872 979l-79 -193q-96 66 -191 66q-70 0 -128.5 -38t-96.5 -103v-711h-246v1022h182l64 -94q45 53 115.5 84.5t146.5 31.5q116 0 233 -65zM174 -53l184 -51q32 -132 -30 -238q-77 -136 -295 -166l-78 43q74 9 133.5 46t87.5 91q51 93 -2 275z" />
    <glyph glyph-name="Rcaron" unicode="&#x158;" horiz-adv-x="1202" 
d="M279 1909h198l144 -152l143 152h197l-340 -350zM170 1434h428q242 0 388.5 -130.5t146.5 -347.5q0 -148 -72 -259t-199 -167q120 -40 203 -185t102 -345h-278q-10 180 -102 309.5t-232 163.5h-129l2 -473h-258v1434zM426 709h184q115 0 185.5 67.5t70.5 177.5t-70 177
t-186 67h-184v-489z" />
    <glyph glyph-name="rcaron" unicode="&#x159;" horiz-adv-x="843" 
d="M59 1499h197l145 -151l144 151h196l-342 -350zM872 979l-79 -193q-96 66 -191 66q-70 0 -128.5 -38t-96.5 -103v-711h-246v1022h182l64 -94q45 53 115.5 84.5t146.5 31.5q116 0 233 -65z" />
    <glyph glyph-name="Sacute" unicode="&#x15a;" horiz-adv-x="1220" 
d="M475 1573l154 325l217 -34l-281 -291h-90zM553 1456q144 0 304.5 -61t279.5 -160l-119 -201q-75 76 -209 131.5t-244 55.5q-74 0 -121.5 -27t-60.5 -78q-13 -39 8.5 -80.5t77.5 -72.5l444 -246q217 -116 217 -344q0 -180 -127 -286.5t-341 -106.5q-172 0 -342.5 67.5
t-272.5 177.5l103 217q79 -89 206 -153.5t250 -79.5q111 -12 181.5 19t82.5 100q21 110 -116 188l-451 256q-190 106 -190 305q1 168 125 273.5t315 105.5z" />
    <glyph glyph-name="sacute" unicode="&#x15b;" horiz-adv-x="872" 
d="M334 1163l153 326l218 -35l-281 -291h-90zM383 1044q108 0 228 -47t214 -123l-102 -169q-73 65 -153 103t-144 46q-56 7 -91 -8t-46 -45q-9 -26 5 -53.5t44 -45.5l315 -176q80 -42 121 -108.5t41 -147.5q0 -131 -96 -210.5t-252 -79.5q-124 0 -246.5 50.5t-193.5 133.5
l84 186q61 -72 168 -130t196 -58q53 0 88 23t35 67q0 64 -76 108l-313 181q-69 39 -109 109.5t-34 150.5q9 107 97 175t220 68z" />
    <glyph glyph-name="Scircumflex" unicode="&#x15c;" horiz-adv-x="1220" 
d="M616 1909l340 -350h-186l-152 151l-153 -151h-189zM553 1456q144 0 304.5 -61t279.5 -160l-119 -201q-75 76 -209 131.5t-244 55.5q-74 0 -121.5 -27t-60.5 -78q-13 -39 8.5 -80.5t77.5 -72.5l444 -246q217 -116 217 -344q0 -180 -127 -286.5t-341 -106.5
q-172 0 -342.5 67.5t-272.5 177.5l103 217q79 -89 206 -153.5t250 -79.5q111 -12 181.5 19t82.5 100q21 110 -116 188l-451 256q-190 106 -190 305q1 168 125 273.5t315 105.5z" />
    <glyph glyph-name="scircumflex" unicode="&#x15d;" horiz-adv-x="872" 
d="M465 1499l340 -350h-187l-153 151l-152 -151h-188zM383 1044q108 0 228 -47t214 -123l-102 -169q-73 65 -153 103t-144 46q-56 7 -91 -8t-46 -45q-9 -26 5 -53.5t44 -45.5l315 -176q80 -42 121 -108.5t41 -147.5q0 -131 -96 -210.5t-252 -79.5q-124 0 -246.5 50.5
t-193.5 133.5l84 186q61 -72 168 -130t196 -58q53 0 88 23t35 67q0 64 -76 108l-313 181q-69 39 -109 109.5t-34 150.5q9 107 97 175t220 68z" />
    <glyph glyph-name="Scedilla" unicode="&#x15e;" horiz-adv-x="1220" 
d="M553 1456q144 0 304.5 -61t279.5 -160l-119 -201q-75 76 -209 131.5t-244 55.5q-74 0 -121.5 -27t-60.5 -78q-13 -39 8.5 -80.5t77.5 -72.5l444 -246q217 -116 217 -344q0 -158 -100.5 -261t-273.5 -126l-31 -54q59 -5 93 -44.5t34 -108.5q0 -119 -94 -198t-248 -89
l18 135q60 3 103 40t53 95q7 43 -8 67t-49 24q-21 0 -54 -13l72 142q-170 3 -334.5 69t-263.5 174l103 217q79 -89 206 -153.5t250 -79.5q111 -12 181.5 19t82.5 100q21 110 -116 188l-451 256q-190 106 -190 305q1 168 125 273.5t315 105.5z" />
    <glyph glyph-name="scedilla" unicode="&#x15f;" horiz-adv-x="872" 
d="M383 1044q108 0 228 -47t214 -123l-102 -169q-73 65 -153 103t-144 46q-56 7 -91 -8t-46 -45q-9 -26 5 -53.5t44 -45.5l315 -176q80 -42 121 -108.5t41 -147.5q-1 -109 -69 -182.5t-183 -97.5l-33 -58q61 -5 94 -44t33 -109q0 -119 -94 -198t-248 -89l19 135q60 3 103 40
t52 95q8 43 -7 67t-50 24q-21 0 -53 -13l72 142q-120 3 -238 53t-186 129l84 186q61 -72 168 -130t196 -58q53 0 88 23t35 67q0 64 -76 108l-313 181q-69 39 -109 109.5t-34 150.5q9 107 97 175t220 68z" />
    <glyph glyph-name="Scaron" unicode="&#x160;" horiz-adv-x="1220" 
d="M303 1909h197l143 -152l143 152h197l-340 -350zM553 1456q144 0 304.5 -61t279.5 -160l-119 -201q-75 76 -209 131.5t-244 55.5q-74 0 -121.5 -27t-60.5 -78q-13 -39 8.5 -80.5t77.5 -72.5l444 -246q217 -116 217 -344q0 -180 -127 -286.5t-341 -106.5
q-172 0 -342.5 67.5t-272.5 177.5l103 217q79 -89 206 -153.5t250 -79.5q111 -12 181.5 19t82.5 100q21 110 -116 188l-451 256q-190 106 -190 305q1 168 125 273.5t315 105.5z" />
    <glyph glyph-name="scaron" unicode="&#x161;" horiz-adv-x="872" 
d="M125 1499h197l143 -151l143 151h197l-340 -350zM383 1044q108 0 228 -47t214 -123l-102 -169q-73 65 -153 103t-144 46q-56 7 -91 -8t-46 -45q-9 -26 5 -53.5t44 -45.5l315 -176q80 -42 121 -108.5t41 -147.5q0 -131 -96 -210.5t-252 -79.5q-124 0 -246.5 50.5
t-193.5 133.5l84 186q61 -72 168 -130t196 -58q53 0 88 23t35 67q0 64 -76 108l-313 181q-69 39 -109 109.5t-34 150.5q9 107 97 175t220 68z" />
    <glyph glyph-name="uni0162" unicode="&#x162;" horiz-adv-x="1331" 
d="M504 0v1198h-484v236h1221v-236h-481v-1198h-35l-37 -68q59 -5 93 -44.5t34 -108.5q0 -119 -94.5 -198t-249.5 -89l21 135q60 3 102.5 40t52.5 95q6 43 -8.5 67t-48.5 24q-22 0 -55 -13l83 160h-114z" />
    <glyph glyph-name="uni0163" unicode="&#x163;" horiz-adv-x="851" 
d="M35 817v207h174v305l119 207h129v-512h270v-207h-270v-403q0 -96 35.5 -156.5t103.5 -60.5t133 51l115 -182q-142 -86 -318 -86l-26 -48q59 -5 93 -44.5t34 -108.5q0 -119 -94 -198t-248 -89l18 135q60 3 103 40t53 95q7 42 -8.5 66.5t-49.5 24.5q-21 0 -53 -13l80 156
q-102 32 -160.5 120t-58.5 212v489h-174z" />
    <glyph glyph-name="Tcaron" unicode="&#x164;" horiz-adv-x="1261" 
d="M332 1909h198l144 -152l143 152h197l-340 -350zM504 0v1198h-481v236h1220v-236h-481v-1198h-258z" />
    <glyph glyph-name="tcaron" unicode="&#x165;" horiz-adv-x="1118" 
d="M35 817v207h174v305l119 207h129v-512h270v-207h-270v-403q0 -96 35.5 -156.5t103.5 -60.5t133 51l115 -182q-64 -39 -146.5 -62.5t-156.5 -23.5q-150 0 -240 95.5t-92 252.5v489h-174zM883 1393l190 41q92 -102 86 -226q-3 -157 -184 -288h-90q61 42 97 104.5t36 124.5
q0 106 -135 244z" />
    <glyph glyph-name="Tbar" unicode="&#x166;" horiz-adv-x="1261" 
d="M252 754v180h252v264h-481v236h1220v-236h-481v-264h332v-180h-332v-754h-258v754h-252z" />
    <glyph glyph-name="tbar" unicode="&#x167;" horiz-adv-x="851" 
d="M45 543v149h164v125h-174v207h174v305l119 207h129v-512h270v-207h-270v-125h362v-149h-362v-129q0 -96 35.5 -156.5t103.5 -60.5t133 51l115 -182q-64 -39 -146.5 -62.5t-156.5 -23.5q-150 0 -240 95.5t-92 252.5v215h-164z" />
    <glyph glyph-name="Utilde" unicode="&#x168;" horiz-adv-x="1439" 
d="M643 1769q35 0 94.5 -26.5t89.5 -26.5q50 0 76 47h74q-8 -62 -49.5 -110.5t-102.5 -48.5q-39 0 -97 29t-87 26q-48 -6 -72 -53h-90q18 69 62.5 116t101.5 47zM147 563v871h259v-893q2 -147 89.5 -236.5t231.5 -89.5t232 89.5t88 236.5v893h256l2 -871q0 -262 -159 -422.5
t-419 -160.5q-261 0 -420.5 160.5t-159.5 422.5z" />
    <glyph glyph-name="utilde" unicode="&#x169;" horiz-adv-x="1122" 
d="M526 1360q35 0 94 -26.5t89 -26.5q49 0 75 47h74q-8 -63 -48.5 -111.5t-102.5 -48.5q-37 0 -95.5 29t-87.5 26q-49 -6 -73 -53h-91q18 69 63 116.5t103 47.5zM1010 1024v-1024h-181l-63 111q-69 -60 -157.5 -95.5t-170.5 -35.5q-148 0 -237.5 115.5t-89.5 305.5v623h245
v-561q0 -117 53 -187.5t140 -70.5q57 0 116.5 30t98.5 80v709h246z" />
    <glyph glyph-name="Umacron" unicode="&#x16a;" horiz-adv-x="1439" 
d="M467 1575v111h512v-111h-512zM147 563v871h259v-893q2 -147 89.5 -236.5t231.5 -89.5t232 89.5t88 236.5v893h256l2 -871q0 -262 -159 -422.5t-419 -160.5q-261 0 -420.5 160.5t-159.5 422.5z" />
    <glyph glyph-name="umacron" unicode="&#x16b;" horiz-adv-x="1122" 
d="M346 1165v111h512v-111h-512zM1010 1024v-1024h-181l-63 111q-69 -60 -157.5 -95.5t-170.5 -35.5q-148 0 -237.5 115.5t-89.5 305.5v623h245v-561q0 -117 53 -187.5t140 -70.5q57 0 116.5 30t98.5 80v709h246z" />
    <glyph glyph-name="Ubreve" unicode="&#x16c;" horiz-adv-x="1439" 
d="M924 1892h108q-3 -140 -86 -224.5t-219 -84.5t-219 84t-86 223h108q11 -81 63.5 -129.5t133.5 -48.5q79 0 132.5 49t64.5 131zM147 563v871h259v-893q2 -147 89.5 -236.5t231.5 -89.5t232 89.5t88 236.5v893h256l2 -871q0 -262 -159 -422.5t-419 -160.5
q-261 0 -420.5 160.5t-159.5 422.5z" />
    <glyph glyph-name="ubreve" unicode="&#x16d;" horiz-adv-x="1122" 
d="M791 1483h108q-3 -140 -86.5 -224.5t-218.5 -84.5q-136 0 -219 84t-88 223h110q11 -80 63.5 -129t131.5 -49q80 0 134.5 49t64.5 131zM1010 1024v-1024h-181l-63 111q-69 -60 -157.5 -95.5t-170.5 -35.5q-148 0 -237.5 115.5t-89.5 305.5v623h245v-561q0 -117 53 -187.5
t140 -70.5q57 0 116.5 30t98.5 80v709h246z" />
    <glyph glyph-name="Uring" unicode="&#x16e;" horiz-adv-x="1439" 
d="M575 1724q0 69 43 111.5t113 42.5q69 0 112.5 -42.5t43.5 -111.5t-43.5 -111t-112.5 -42q-70 0 -113 42t-43 111zM659 1724q0 -37 20 -59.5t52 -22.5t51 22.5t19 59.5t-19 59.5t-51 22.5t-52 -22.5t-20 -59.5zM147 563v871h259v-893q2 -147 89.5 -236.5t231.5 -89.5
t232 89.5t88 236.5v893h256l2 -871q0 -262 -159 -422.5t-419 -160.5q-261 0 -420.5 160.5t-159.5 422.5z" />
    <glyph glyph-name="uring" unicode="&#x16f;" horiz-adv-x="1122" 
d="M438 1315q0 69 43.5 111t112.5 42q70 0 113 -42t43 -111t-43 -111.5t-113 -42.5q-69 0 -112.5 42.5t-43.5 111.5zM522 1315q0 -37 20 -59.5t52 -22.5t52 22.5t20 59.5t-20 59.5t-52 22.5t-52 -22.5t-20 -59.5zM1010 1024v-1024h-181l-63 111q-69 -60 -157.5 -95.5
t-170.5 -35.5q-148 0 -237.5 115.5t-89.5 305.5v623h245v-561q0 -117 53 -187.5t140 -70.5q57 0 116.5 30t98.5 80v709h246z" />
    <glyph glyph-name="Uhungarumlaut" unicode="&#x170;" horiz-adv-x="1439" 
d="M831 1864l-348 -291h-20l147 291h221zM1130 1864l-350 -291h-20l149 291h221zM147 563v871h259v-893q2 -147 89.5 -236.5t231.5 -89.5t232 89.5t88 236.5v893h256l2 -871q0 -262 -159 -422.5t-419 -160.5q-261 0 -420.5 160.5t-159.5 422.5z" />
    <glyph glyph-name="uhungarumlaut" unicode="&#x171;" horiz-adv-x="1122" 
d="M731 1454l-348 -291h-21l148 291h221zM1030 1454l-350 -291h-21l150 291h221zM1010 1024v-1024h-181l-63 111q-69 -60 -157.5 -95.5t-170.5 -35.5q-148 0 -237.5 115.5t-89.5 305.5v623h245v-561q0 -117 53 -187.5t140 -70.5q57 0 116.5 30t98.5 80v709h246z" />
    <glyph glyph-name="Uogonek" unicode="&#x172;" horiz-adv-x="1439" 
d="M147 563v871h259v-893q2 -147 89.5 -236.5t231.5 -89.5t232 89.5t88 236.5v893h256l2 -871q0 -234 -129.5 -390t-348.5 -187q-83 -61 -130 -129t-46 -127q2 -46 32 -72.5t81 -26.5q78 0 162 66l71 -59q-41 -54 -116 -87.5t-156 -33.5q-104 0 -162 50.5t-47 129.5
q9 69 70 145t155 138q-269 0 -431.5 157.5t-162.5 425.5z" />
    <glyph glyph-name="uogonek" unicode="&#x173;" horiz-adv-x="1122" 
d="M1010 1024v-1024h-82q-90 -62 -143 -135t-52 -135q2 -46 32 -72.5t81 -26.5q78 0 162 66l71 -59q-43 -55 -117.5 -88t-156.5 -33q-102 0 -160 51t-47 129q9 74 80 156.5t178 146.5h-27l-63 111q-69 -60 -157.5 -95.5t-170.5 -35.5q-148 0 -237.5 115.5t-89.5 305.5v623
h245v-561q0 -117 53 -187.5t140 -70.5q57 0 116.5 30t98.5 80v709h246z" />
    <glyph glyph-name="Wcircumflex" unicode="&#x174;" horiz-adv-x="1783" 
d="M893 1909l340 -350h-189l-151 151l-152 -151h-190zM537 332l251 1102h207l252 -1102l232 1102h266l-332 -1434h-317l-201 786l-193 -786h-331l-332 1434h266z" />
    <glyph glyph-name="wcircumflex" unicode="&#x175;" horiz-adv-x="1544" 
d="M772 1499l340 -350h-186l-154 151l-151 -151h-189zM485 252l189 772h196l189 -772l188 772h256l-295 -1024h-272l-164 535l-162 -535h-274l-295 1024h256z" />
    <glyph glyph-name="Ycircumflex" unicode="&#x176;" horiz-adv-x="1239" 
d="M631 1909l340 -350h-187l-153 151l-152 -151h-188zM623 803l305 631h276l-452 -983v-451h-258v453l-457 981h276z" />
    <glyph glyph-name="ycircumflex" unicode="&#x177;" horiz-adv-x="1069" 
d="M547 1499l342 -350h-189l-151 151l-154 -151h-188zM535 270l262 754h243l-419 -1137q-61 -165 -190 -278t-279 -133l-54 192q60 10 110.5 40t88.5 75.5t65.5 95t51.5 111.5l-398 1034h244z" />
    <glyph glyph-name="Ydieresis" unicode="&#x178;" horiz-adv-x="1239" 
d="M340 1716q0 51 31 82t82 31t81.5 -31t30.5 -82q0 -52 -30.5 -82t-81.5 -30t-82 30t-31 82zM709 1716q0 51 30.5 82t81.5 31t82 -31t31 -82q0 -52 -31 -82t-82 -30t-81.5 30t-30.5 82zM623 803l305 631h276l-452 -983v-451h-258v453l-457 981h276z" />
    <glyph glyph-name="Zacute" unicode="&#x179;" horiz-adv-x="1271" 
d="M520 1573l154 325l217 -34l-281 -291h-90zM143 1434h1061l-682 -1198h695v-236h-1139l696 1198h-631v236z" />
    <glyph glyph-name="zacute" unicode="&#x17a;" horiz-adv-x="980" 
d="M410 1163l151 326l217 -35l-278 -291h-90zM37 0l510 823h-451v201h856l-510 -823h502v-201h-907z" />
    <glyph glyph-name="Zdotaccent" unicode="&#x17b;" horiz-adv-x="1271" 
d="M526 1710q0 51 31 82t82 31t82 -31t31 -82q0 -52 -31 -82.5t-82 -30.5t-82 30.5t-31 82.5zM143 1434h1061l-682 -1198h695v-236h-1139l696 1198h-631v236z" />
    <glyph glyph-name="zdotaccent" unicode="&#x17c;" horiz-adv-x="980" 
d="M408 1300q0 51 30.5 82t81.5 31t82 -31t31 -82q0 -52 -31 -82t-82 -30t-81.5 30t-30.5 82zM37 0l510 823h-451v201h856l-510 -823h502v-201h-907z" />
    <glyph glyph-name="Zcaron" unicode="&#x17d;" horiz-adv-x="1271" 
d="M344 1909h197l143 -152l145 152h195l-340 -350zM143 1434h1061l-682 -1198h695v-236h-1139l696 1198h-631v236z" />
    <glyph glyph-name="zcaron" unicode="&#x17e;" horiz-adv-x="980" 
d="M211 1499h197l143 -151l145 151h195l-340 -350zM37 0l510 823h-451v201h856l-510 -823h502v-201h-907z" />
    <glyph glyph-name="florin" unicode="&#x192;" horiz-adv-x="940" 
d="M315 -92v909h-182v207h182l2 133q0 176 91.5 282.5t244.5 106.5q74 0 153 -24.5t136 -65.5l-90 -190q-72 59 -152 59q-63 0 -101 -57.5t-38 -151.5v-92h301v-207h-301v-948q0 -177 -92 -284t-246 -107q-73 0 -152 25t-137 65l93 190q76 -59 149 -59q64 0 101.5 57
t37.5 152z" />
    <glyph glyph-name="uni0218" unicode="&#x218;" horiz-adv-x="1220" 
d="M553 1456q144 0 304.5 -61t279.5 -160l-119 -201q-75 76 -209 131.5t-244 55.5q-74 0 -121.5 -27t-60.5 -78q-13 -39 8.5 -80.5t77.5 -72.5l444 -246q217 -116 217 -344q0 -180 -127 -286.5t-341 -106.5q-172 0 -342.5 67.5t-272.5 177.5l103 217q79 -89 206 -153.5
t250 -79.5q111 -12 181.5 19t82.5 100q21 110 -116 188l-451 256q-190 106 -190 305q1 168 125 273.5t315 105.5zM563 -53l185 -51q32 -129 -29 -238q-77 -136 -297 -166l-78 43q73 9 133.5 46t89.5 91q49 93 -4 275z" />
    <glyph glyph-name="uni0219" unicode="&#x219;" horiz-adv-x="872" 
d="M383 1044q108 0 228 -47t214 -123l-102 -169q-73 65 -153 103t-144 46q-56 7 -91 -8t-46 -45q-9 -26 5 -53.5t44 -45.5l315 -176q80 -42 121 -108.5t41 -147.5q0 -131 -96 -210.5t-252 -79.5q-124 0 -246.5 50.5t-193.5 133.5l84 186q61 -72 168 -130t196 -58q53 0 88 23
t35 67q0 64 -76 108l-313 181q-69 39 -109 109.5t-34 150.5q9 107 97 175t220 68zM383 -53l184 -51q32 -131 -28 -238q-77 -135 -295 -166l-78 43q73 9 133 46t88 91q49 93 -4 275z" />
    <glyph glyph-name="uni021A" unicode="&#x21a;" horiz-adv-x="1261" 
d="M504 0v1198h-481v236h1220v-236h-481v-1198h-258zM580 -53l184 -51q32 -129 -29 -238q-77 -136 -297 -166l-78 43q74 9 134.5 46t89.5 91q49 93 -4 275z" />
    <glyph glyph-name="uni021B" unicode="&#x21b;" horiz-adv-x="851" 
d="M35 817v207h174v305l119 207h129v-512h270v-207h-270v-403q0 -96 35.5 -156.5t103.5 -60.5t133 51l115 -182q-64 -39 -146.5 -62.5t-156.5 -23.5q-150 0 -240 95.5t-92 252.5v489h-174zM412 -53l184 -51q32 -129 -29 -238q-77 -136 -297 -166l-77 43q73 9 133.5 46
t89.5 91q49 93 -4 275z" />
    <glyph glyph-name="uni0237" unicode="&#x237;" horiz-adv-x="534" 
d="M434 1024v-1165q0 -177 -92 -284t-246 -107q-73 0 -153 24.5t-136 65.5l93 190q76 -59 149 -59q64 0 102.5 57.5t36.5 151.5v1126h246z" />
    <glyph glyph-name="circumflex" unicode="&#x2c6;" horiz-adv-x="866" 
d="M434 1499l340 -350h-186l-154 151l-151 -151h-189z" />
    <glyph glyph-name="caron" unicode="&#x2c7;" horiz-adv-x="866" 
d="M94 1499h197l143 -151l144 151h196l-340 -350z" />
    <glyph glyph-name="uni02C9" unicode="&#x2c9;" horiz-adv-x="593" 
d="M92 1075v86h410v-86h-410z" />
    <glyph glyph-name="breve" unicode="&#x2d8;" horiz-adv-x="706" 
d="M522 1483h109q-3 -140 -86 -224.5t-219 -84.5t-219.5 84.5t-86.5 222.5h109q11 -80 64.5 -129t132.5 -49t132 49t64 131z" />
    <glyph glyph-name="dotaccent" unicode="&#x2d9;" horiz-adv-x="411" 
d="M94 1300q0 51 30.5 82t82.5 31q51 0 80.5 -31t29.5 -82q0 -52 -29.5 -82t-80.5 -30q-53 0 -83 30t-30 82z" />
    <glyph glyph-name="ring" unicode="&#x2da;" horiz-adv-x="497" 
d="M92 1315q0 69 43.5 111t112.5 42q70 0 112.5 -42t42.5 -111t-42.5 -111.5t-112.5 -42.5q-69 0 -112.5 42.5t-43.5 111.5zM178 1315q0 -37 19 -59.5t51 -22.5t51.5 22.5t19.5 59.5t-19.5 59.5t-51.5 22.5t-51 -22.5t-19 -59.5z" />
    <glyph glyph-name="ogonek" unicode="&#x2db;" horiz-adv-x="669" 
d="M94 -303q10 79 92.5 168.5t202.5 152.5h66q-103 -64 -165 -142.5t-59 -145.5q0 -45 30.5 -72t80.5 -27q78 0 162 66l74 -59q-43 -55 -118 -88t-157 -33q-104 0 -162 50.5t-47 129.5z" />
    <glyph glyph-name="tilde" unicode="&#x2dc;" horiz-adv-x="671" 
d="M258 1360q35 0 94.5 -26.5t89.5 -26.5q50 0 76 47h74q-8 -62 -49.5 -111t-102.5 -49q-39 0 -97 29t-87 26q-48 -6 -72 -53h-90q19 69 62.5 116.5t101.5 47.5z" />
    <glyph glyph-name="hungarumlaut" unicode="&#x2dd;" horiz-adv-x="854" 
d="M463 1454l-350 -291h-21l150 291h221zM760 1454l-348 -291h-21l150 291h219z" />
    <glyph glyph-name="uni0326" unicode="&#x326;" 
d="M135 512q0 58 35 93.5t92 35.5q61 0 98 -41.5t37 -110.5q0 -79 -47.5 -176.5t-124.5 -171.5l-59 -37q120 146 123 230q3 55 -53 55q-43 0 -72 34.5t-29 88.5z" />
    <glyph glyph-name="uni0394" unicode="&#x394;" horiz-adv-x="1499" 
d="M94 0l531 1434h252l530 -1434h-1313zM750 1032l-289 -782h579z" />
    <glyph glyph-name="uni03A9" unicode="&#x3a9;" horiz-adv-x="1650" 
d="M696 197v-197h-610v180h328q-141 97 -226.5 264.5t-85.5 358.5q0 288 190.5 469.5t498.5 181.5q203 0 359.5 -81.5t241.5 -227.5t85 -334q0 -192 -87 -361t-233 -270h326v-180h-613l2 197q7 4 19 12.5t47 38.5t66.5 63t70.5 85.5t67 108t47 129.5t19 150q0 197 -115 319
t-302 122q-188 0 -304 -123t-116 -322q0 -75 18 -148t46.5 -129.5t63.5 -107t69.5 -86t63 -61.5t46.5 -38z" />
    <glyph glyph-name="uni03BC" unicode="&#x3bc;" horiz-adv-x="1210" 
d="M1055 1024v-1024h-246v111q-67 -60 -156.5 -95.5t-171.5 -35.5q-51 0 -80 26v-397h-245v1415h245v-571q3 -113 55.5 -180.5t137.5 -67.5q56 0 115 30t100 80v709h246z" />
    <glyph glyph-name="pi" unicode="&#x3c0;" horiz-adv-x="1505" 
d="M287 0v860h-195v164h1319v-164h-223v-686q0 -87 35 -125.5t82 -40.5q-61 -18 -148 -18q-215 0 -215 166v704h-410v-860h-245z" />
    <glyph glyph-name="Wgrave" unicode="&#x1e80;" horiz-adv-x="1783" 
d="M940 1573l-295 291l217 34l152 -325h-74zM537 332l251 1102h207l252 -1102l232 1102h266l-332 -1434h-317l-201 786l-193 -786h-331l-332 1434h266z" />
    <glyph glyph-name="wgrave" unicode="&#x1e81;" horiz-adv-x="1544" 
d="M735 1163l-297 291l217 35l154 -326h-74zM485 252l189 772h196l189 -772l188 772h256l-295 -1024h-272l-164 535l-162 -535h-274l-295 1024h256z" />
    <glyph glyph-name="Wacute" unicode="&#x1e82;" horiz-adv-x="1783" 
d="M907 1573l152 325l217 -34l-279 -291h-90zM537 332l251 1102h207l252 -1102l232 1102h266l-332 -1434h-317l-201 786l-193 -786h-331l-332 1434h266z" />
    <glyph glyph-name="wacute" unicode="&#x1e83;" horiz-adv-x="1544" 
d="M647 1163l154 326l217 -35l-281 -291h-90zM485 252l189 772h196l189 -772l188 772h256l-295 -1024h-272l-164 535l-162 -535h-274l-295 1024h256z" />
    <glyph glyph-name="Wdieresis" unicode="&#x1e84;" horiz-adv-x="1783" 
d="M596 1716q0 51 30.5 82t82.5 31q51 0 81.5 -31t30.5 -82q0 -52 -30.5 -82t-81.5 -30q-53 0 -83 30t-30 82zM965 1716q0 51 30 82t82 31q51 0 82 -31t31 -82q0 -52 -31 -82t-82 -30q-53 0 -82.5 30t-29.5 82zM537 332l251 1102h207l252 -1102l232 1102h266l-332 -1434
h-317l-201 786l-193 -786h-331l-332 1434h266z" />
    <glyph glyph-name="wdieresis" unicode="&#x1e85;" horiz-adv-x="1544" 
d="M475 1307q0 51 31 81.5t82 30.5t81.5 -30.5t30.5 -81.5q0 -52 -30.5 -82.5t-81.5 -30.5t-82 30.5t-31 82.5zM844 1307q0 51 30.5 81.5t81.5 30.5t82 -30.5t31 -81.5q0 -52 -31 -82.5t-82 -30.5t-81.5 30.5t-30.5 82.5zM485 252l189 772h196l189 -772l188 772h256
l-295 -1024h-272l-164 535l-162 -535h-274l-295 1024h256z" />
    <glyph glyph-name="endash" unicode="&#x2013;" horiz-adv-x="901" 
d="M92 588v139h717v-139h-717z" />
    <glyph glyph-name="emdash" unicode="&#x2014;" horiz-adv-x="1269" 
d="M92 588v139h1086v-139h-1086z" />
    <glyph glyph-name="quoteleft" unicode="&#x2018;" horiz-adv-x="489" 
d="M371 961l-191 -41q-92 102 -86 225q3 157 185 289h90q-61 -42 -97 -105t-36 -125q0 -105 135 -243z" />
    <glyph glyph-name="quoteright" unicode="&#x2019;" horiz-adv-x="491" 
d="M119 1393l190 41q92 -102 86 -226q-3 -157 -184 -288h-90q61 42 97 104t36 123q0 108 -135 246z" />
    <glyph glyph-name="quotesinglbase" unicode="&#x201a;" horiz-adv-x="489" 
d="M121 63l188 43q91 -101 88 -227q-6 -156 -186 -289l-90 2q61 43 97 104.5t36 123.5q0 59 -34 117t-99 126z" />
    <glyph glyph-name="quotedblleft" unicode="&#x201c;" horiz-adv-x="804" 
d="M371 961l-191 -41q-92 102 -86 225q3 157 185 289h90q-61 -42 -97 -105t-36 -125q0 -105 135 -243zM686 961l-190 -41q-92 102 -86 225q3 158 184 289h90q-61 -42 -97 -105t-36 -125q0 -105 135 -243z" />
    <glyph glyph-name="quotedblright" unicode="&#x201d;" horiz-adv-x="804" 
d="M434 1393l191 41q92 -102 86 -226q-3 -156 -185 -288h-90q61 42 97 104.5t36 124.5q0 106 -135 244zM119 1393l190 41q92 -102 86 -226q-3 -157 -184 -288h-90q61 42 97 104.5t36 124.5q0 106 -135 244z" />
    <glyph glyph-name="quotedblbase" unicode="&#x201e;" horiz-adv-x="804" 
d="M434 55l191 43q92 -102 86 -227q-3 -154 -185 -289l-90 2q61 42 97 105t36 125q0 106 -135 241zM119 55l190 43q92 -102 86 -227q-3 -155 -184 -289l-90 2q61 42 97 105t36 125q0 106 -135 241z" />
    <glyph glyph-name="dagger" unicode="&#x2020;" horiz-adv-x="1159" 
d="M469 -512l61 1319l-436 -59v221l436 -60l-61 627h221l-61 -627l436 60v-221l-436 59l61 -1319h-221z" />
    <glyph glyph-name="daggerdbl" unicode="&#x2021;" horiz-adv-x="1159" 
d="M469 -512l70 557l-445 -65v221l443 -66l-43 318l45 362l-445 -67v221l445 -68l-70 635h221l-69 -635l444 68v-221l-444 67l45 -362l-43 -318l442 64v-222l-442 68l67 -557h-221z" />
    <glyph glyph-name="bullet" unicode="&#x2022;" horiz-adv-x="581" 
d="M94 557q0 88 55 143.5t144 55.5q88 0 141 -55t53 -144q0 -88 -52.5 -142.5t-141.5 -54.5t-144 54.5t-55 142.5z" />
    <glyph glyph-name="ellipsis" unicode="&#x2026;" horiz-adv-x="1353" 
d="M92 127q0 67 42 109.5t110 42.5q66 0 106.5 -42t40.5 -110q0 -65 -40.5 -106t-106.5 -41q-67 0 -109.5 41t-42.5 106zM528 127q0 68 41.5 110t108.5 42t107 -42t40 -110q0 -65 -40 -106t-107 -41t-108.5 41t-41.5 106zM963 127q0 67 41.5 109.5t107.5 42.5
q67 0 107.5 -42t40.5 -110q0 -65 -40.5 -106t-107.5 -41q-66 0 -107.5 41t-41.5 106z" />
    <glyph glyph-name="perthousand" unicode="&#x2030;" horiz-adv-x="1959" 
d="M117 1102q0 160 74.5 256t197.5 96q125 0 200 -96t75 -256t-75 -256t-200 -96q-123 0 -197.5 96t-74.5 256zM223 0h-131l1053 1434h131zM242 1102q0 -109 40.5 -176.5t106.5 -67.5q67 0 108.5 67.5t41.5 176.5t-41 175t-109 66q-66 0 -106.5 -66t-40.5 -175zM709 332
q0 160 75 256t199 96q123 0 197.5 -96t74.5 -256q0 -158 -74.5 -255t-197.5 -97q-124 0 -199 96.5t-75 255.5zM1331 332q0 160 75 256t200 96q123 0 197.5 -96t74.5 -256q0 -158 -74.5 -255t-197.5 -97q-124 0 -199.5 96.5t-75.5 255.5zM834 332q0 -108 41.5 -175t107.5 -67
t106.5 66.5t40.5 175.5q0 110 -40.5 176.5t-106.5 66.5t-107.5 -67.5t-41.5 -175.5zM1456 332q0 -108 42 -175t108 -67t106.5 66.5t40.5 175.5q0 110 -40.5 176.5t-106.5 66.5t-108 -67.5t-42 -175.5z" />
    <glyph glyph-name="guilsinglleft" unicode="&#x2039;" horiz-adv-x="600" 
d="M506 193h-139l-275 327l275 328h139l-201 -328z" />
    <glyph glyph-name="guilsinglright" unicode="&#x203a;" horiz-adv-x="600" 
d="M233 193h-141l203 327l-201 328h139l273 -328z" />
    <glyph glyph-name="fraction" unicode="&#x2044;" horiz-adv-x="991" 
d="M-33 0h-151l1206 1434h152z" />
    <glyph glyph-name="franc" unicode="&#x20a3;" horiz-adv-x="1101" 
d="M168 0v221h-115v154h115v1059h899v-236h-641v-389h545v-229h-545v-205h317v-154h-317l2 -221h-260z" />
    <glyph glyph-name="lira" unicode="&#x20a4;" horiz-adv-x="1210" 
d="M94 440v144h193q0 32 -8 102h-183v156h160q-17 80 -80 282q-58 196 44.5 304t334.5 108q145 0 263.5 -41t193.5 -106l-66 -191q-64 64 -158.5 105.5t-179.5 44.5q-117 4 -169 -62t-19 -170q58 -177 72 -274h280v-156h-274v-102h272v-144h-287q-22 -118 -84 -217
q61 15 113 15q37 0 94 -11q24 -4 81 -18t87 -14q103 0 156 81h182q-28 -136 -117.5 -209.5t-220.5 -84.5q-73 -5 -199.5 16.5t-166.5 24.5q-62 8 -91 8q-86 0 -174 -31h-28q137 274 164 440h-185z" />
    <glyph glyph-name="peseta" unicode="&#x20a7;" horiz-adv-x="2549" 
d="M170 1434h428q221 0 364 -111t166 -299h144v305l119 207h129v-512h170v-207h-170v-403q0 -96 35.5 -156.5t103.5 -60.5q27 0 67 14l62 139q61 -72 168 -130t196 -58q53 0 88 23t35 67q0 65 -75 108l-314 181q-69 39 -109 109.5t-34 150.5q9 107 97.5 175t219.5 68
q109 0 230 -47t213 -123l-103 -169q-74 65 -153 103t-144 46q-56 7 -90.5 -8t-44.5 -45q-9 -26 5 -53.5t42 -45.5l318 -176q159 -83 159 -256q0 -131 -96 -210.5t-252 -79.5q-141 0 -274 65q-127 -65 -266 -65q-150 0 -240 95.5t-90 252.5l-2 489h-158
q-43 -159 -180.5 -251.5t-335.5 -92.5h-172v-473h-256v1434zM426 709h184q116 0 185 66t69 179q0 110 -69.5 177t-184.5 67h-184v-489z" />
    <glyph glyph-name="Euro" unicode="&#x20ac;" horiz-adv-x="1361" 
d="M1053 346l252 -96q-80 -124 -217.5 -197t-296.5 -73q-255 0 -435 131t-245 358h-174v139h145q-6 52 -6 109q0 21 4 71h-143v140h163q59 243 242.5 384.5t448.5 141.5q159 0 296.5 -72.5t217.5 -197.5l-252 -97q-46 61 -121.5 96.5t-163.5 35.5q-140 0 -242.5 -77.5
t-148.5 -213.5h459v-140h-488q-4 -46 -4 -71q0 -39 8 -109h484v-139h-445q52 -120 150 -187t227 -67q88 0 163.5 35t121.5 96z" />
    <glyph glyph-name="trademark" unicode="&#x2122;" horiz-adv-x="1419" 
d="M688 748l-2 686h96l226 -355l223 355h96v-686h-123v430l-196 -304l-197 304v-430h-123zM272 748v573h-252v113h625v-113h-250v-573h-123z" />
    <glyph glyph-name="estimated" unicode="&#x212e;" horiz-adv-x="1034" 
d="M561 -20q-221 0 -357 146.5t-136 385.5t126 385.5t332 146.5q194 0 320 -128.5t141 -340.5h-672v-454q112 -127 287 -127q136 0 236.5 72.5t128.5 191.5h10q-26 -126 -140.5 -202t-275.5 -76zM315 928v-332h424v332q-38 45 -95 73.5t-114 28.5q-56 0 -115.5 -28.5
t-99.5 -73.5z" />
    <glyph glyph-name="product" unicode="&#x220f;" horiz-adv-x="1495" 
d="M168 -512v1946h1161v-1946h-258v1704h-645v-1704h-258z" />
    <glyph glyph-name="summation" unicode="&#x2211;" horiz-adv-x="993" 
d="M899 4h-805v195l332 520l-332 520v195h805v-197l-553 2l309 -479v-80l-309 -479l553 2v-199z" />
    <glyph glyph-name="minus" unicode="&#x2212;" horiz-adv-x="880" 
d="M92 627v139h696v-139h-696z" />
    <glyph glyph-name="uni2215" unicode="&#x2215;" horiz-adv-x="825" 
d="M174 -328h-154l762 1864h152z" />
    <glyph glyph-name="uni2219" unicode="&#x2219;" horiz-adv-x="440" 
d="M94 467q0 58 35 93.5t92 35.5t91 -35t34 -94q0 -56 -34 -90.5t-91 -34.5t-92 34.5t-35 90.5z" />
    <glyph glyph-name="radical" unicode="&#x221a;" horiz-adv-x="1388" 
d="M94 729v41h244l250 -700l375 1466h374v-41h-344l-377 -1495h-47l-260 729h-215z" />
    <glyph glyph-name="infinity" unicode="&#x221e;" horiz-adv-x="1337" 
d="M991 956q118 0 191 -65.5t73 -171.5q0 -109 -76 -177.5t-196 -68.5q-102 0 -188 50t-129 132q-43 -82 -132 -132t-192 -50q-118 0 -188 66t-70 174q0 109 71.5 176t188.5 67q102 0 190.5 -51t131.5 -135q41 83 131 134.5t194 51.5zM979 895q-86 0 -165 -50.5t-122 -133.5
q44 -79 124.5 -127.5t168.5 -48.5t143.5 48.5t55.5 127.5q0 82 -58.5 133t-146.5 51zM342 895q-84 0 -136 -51t-52 -133t52.5 -129t141.5 -47t169.5 48.5t121.5 127.5q-53 84 -133 134t-164 50z" />
    <glyph glyph-name="integral" unicode="&#x222b;" horiz-adv-x="743" 
d="M250 -92l2 1249q0 176 91.5 282.5t244.5 106.5q74 0 153 -24.5t136 -65.5l-91 -190q-72 59 -151 59q-63 0 -101 -57.5t-38 -151.5v-1247q0 -177 -92 -284t-246 -107q-73 0 -152 25t-137 65l92 190q76 -59 150 -59q64 0 101.5 57t37.5 152z" />
    <glyph glyph-name="approxequal" unicode="&#x2248;" horiz-adv-x="962" 
d="M342 1018q58 0 177 -49t177 -49q31 0 57.5 9t48.5 27.5t34.5 32t31.5 37.5q-14 -35 -25 -58.5t-32 -56.5t-43 -53t-56 -34.5t-73 -14.5q-64 0 -180 49t-172 49t-108 -27.5t-87 -68.5q15 28 24.5 45t35 52t50 55.5t62 37.5t78.5 17zM342 743q58 0 177 -49t177 -49
q41 0 77.5 19.5t52 36t44.5 51.5q-15 -36 -26 -58.5t-32.5 -56t-43.5 -52.5t-56 -33.5t-73 -14.5q-64 0 -180 49t-172 49q-55 0 -106 -27.5t-89 -68.5q48 83 78 117q77 87 172 87z" />
    <glyph glyph-name="notequal" unicode="&#x2260;" horiz-adv-x="880" 
d="M295 207h-105l105 225h-203v139h266l84 181h-350v139h416l100 219h107l-103 -219h201v-139h-266l-82 -181h348v-139h-414z" />
    <glyph glyph-name="lessequal" unicode="&#x2264;" horiz-adv-x="999" 
d="M885 408l-768 372v70l768 364v-141l-543 -258l543 -266v-141zM92 178v139h815v-139h-815z" />
    <glyph glyph-name="greaterequal" unicode="&#x2265;" horiz-adv-x="999" 
d="M117 1214l766 -364v-70l-766 -372v141l540 266l-540 258v141zM92 317h815v-139h-815v139z" />
    <glyph glyph-name="lozenge" unicode="&#x25ca;" horiz-adv-x="966" 
d="M498 -8h-29l-377 719v14l377 717h29l374 -717v-14zM127 719l356 -684l357 684l-357 680z" />
    <glyph glyph-name="uniF8FF" unicode="&#xf8ff;" horiz-adv-x="409" 
 />
    <glyph glyph-name="grave.case" 
d="M377 1573l-295 291l217 34l152 -325h-74z" />
    <glyph glyph-name="a.ss01" horiz-adv-x="1064" 
d="M47 508q0 240 113 388t291 148q79 0 154.5 -29t121.5 -77q8 -8 18 -8q19 0 41.5 28t38.5 66h148v-1024h-180l-66 86q-43 -47 -118 -76.5t-154 -29.5q-181 0 -294.5 145.5t-113.5 382.5zM291 508q0 -143 67.5 -232.5t171.5 -89.5q64 0 117.5 34.5t79.5 92.5v396
q-25 57 -78 91t-117 34q-105 0 -173 -90t-68 -236z" />
    <glyph glyph-name="f.ss01" horiz-adv-x="692" 
d="M414 1536q185 0 352 -94l-92 -191q-47 38 -107 61t-114 23q-117 -2 -117 -112q0 -27 9.5 -61.5t19 -59.5t32.5 -78h238v-207h-234v-817h-243v817h-148v207h152q11 9 1.5 43t-25.5 66.5t-30.5 83.5t-13.5 94q3 102 87.5 163.5t232.5 61.5z" />
    <glyph glyph-name="g.ss01" horiz-adv-x="1105" 
d="M66 516q0 236 114 382t295 146q79 0 154.5 -29.5t118.5 -76.5l65 86h180v-1081q0 -218 -122.5 -346.5t-325.5 -128.5q-126 0 -250.5 49.5t-210.5 132.5l94 190q57 -68 142.5 -109.5t168.5 -41.5q255 0 259 395q-46 -46 -122 -75t-155 -29q-179 0 -292 148t-113 388z
M311 516q0 -146 68.5 -237t173.5 -91q64 0 117 34t78 91v398q-26 57 -80.5 92t-118.5 35q-103 0 -170.5 -89.5t-67.5 -232.5z" />
    <glyph glyph-name="dieresis.case" 
d="M-31 1716q0 51 31 82t82 31t82 -31t31 -82q0 -52 -31 -82t-82 -30t-82 30t-31 82zM338 1716q0 51 31 82t82 31t81.5 -31t30.5 -82q0 -52 -30.5 -82t-81.5 -30t-82 30t-31 82z" />
    <glyph glyph-name="macron.case" 
d="M10 1575v111h512v-111h-512z" />
    <glyph glyph-name="acute.case" 
d="M82 1573l151 325l218 -34l-279 -291h-90z" />
    <glyph glyph-name="circumflex.case" 
d="M334 1909l342 -350h-189l-151 151l-154 -151h-188z" />
    <glyph glyph-name="caron.case" 
d="M-74 1909h197l143 -152l144 152h196l-340 -350z" />
    <glyph glyph-name="caron.salt" horiz-adv-x="866" 
d="M94 1532h197l143 -150l144 150l196 2l-340 -352z" />
    <glyph glyph-name="breve.case" 
d="M420 1892h108q-3 -140 -86 -224.5t-219 -84.5t-219 84t-86 223h109q11 -81 63 -129.5t133 -48.5q79 0 132.5 49t64.5 131z" />
    <glyph glyph-name="dotaccent.case" 
d="M154 1710q0 51 30.5 82t81.5 31t82 -31t31 -82q0 -52 -31 -82.5t-82 -30.5t-81.5 30.5t-30.5 82.5z" />
    <glyph glyph-name="ring.case" 
d="M100 1724q0 69 43.5 111.5t112.5 42.5t112.5 -42.5t43.5 -111.5t-43 -111t-113 -42q-69 0 -112.5 42t-43.5 111zM184 1724q0 -37 20 -59.5t52 -22.5t52 22.5t20 59.5t-20 59.5t-52 22.5t-52 -22.5t-20 -59.5z" />
    <glyph glyph-name="tilde.case" 
d="M188 1769q35 0 94.5 -26.5t90.5 -26.5q47 0 73 47h76q-10 -63 -50.5 -111t-102.5 -48q-37 0 -95.5 29t-87.5 26q-46 -6 -71 -53h-90q16 68 60 115.5t103 47.5z" />
    <glyph glyph-name="hungarumlaut.case" 
d="M303 1864l-350 -291h-21l150 291h221zM600 1864l-350 -291h-21l150 291h221z" />
    <glyph glyph-name="commaaccent.salt" 
d="M135 512q0 58 35 93.5t92 35.5q61 0 98 -41.5t37 -110.5q0 -79 -47.5 -176.5t-124.5 -171.5l-59 -37q120 146 123 230q3 55 -53 55q-43 0 -72 34.5t-29 88.5z" />
    </font>
</defs>
</svg>
